<?xml version="1.0" encoding="utf-8"?>
<!-- Generator: Adobe Illustrator 25.0.1, SVG Export Plug-In . SVG Version: 6.00 Build 0)  -->
<svg version="1.1" id="Layer_1" xmlns="http://www.w3.org/2000/svg" xmlns:xlink="http://www.w3.org/1999/xlink" x="0px" y="0px"
	 viewBox="0 0 72.2 48.3" style="enable-background:new 0 0 72.2 48.3;" xml:space="preserve">
<style type="text/css">
	.st0{fill:#0A8041;}
	.st1{fill:#2A88C9;}
</style>
<polygon class="st0" points="0,5.5 0,22 11,30.9 "/>
<polygon class="st1" points="28.9,0 11,14.5 11,30.9 "/>
<path d="M70.7,35c0.6,0,0.9,0.8,0.9,1.5s-0.2,0.8-0.9,0.8s-1-0.2-1-0.8S70,35,70.7,35 M66.7,37.7h2c0.4,0,0.8-0.3,0.9-0.7
	c0.2,0.4,0.6,0.7,1.1,0.7c1,0,1.4-0.4,1.4-1.3s-0.5-2-1.4-2s-1.3,0.9-1.4,1.7l0,0l0,0l0,0c0,0.6-0.3,1-0.7,1h-0.8
	c0.2-0.2,0.3-0.5,0.2-0.8c0-0.6-0.1-1.1-0.5-1.6c-0.2-0.2-0.5-0.4-0.9-0.4h-0.7v0.5h0.7c0.2,0,0.4,0,0.6,0.2
	c0.3,0.4,0.4,0.9,0.3,1.3c0,0.7-0.2,0.8-0.9,0.8h-1v0.5L66.7,37.7L66.7,37.7z"/>
<polygon points="63.7,38.5 63.7,38.5 63.3,38.9 63.3,38.9 63.3,38.9 63,38.5 62.9,38.5 62.9,38.5 62.5,38.9 62.5,39 62.5,39 
	62.9,39.4 62.9,39.4 63,39.4 63.3,39 63.3,39 63.3,39 63.7,39.4 63.7,39.4 63.7,39.4 64.1,39 64.1,39 64.1,38.9 63.7,38.5 "/>
<polygon points="57.4,33.4 57.4,33.5 57.5,33.4 57.8,33.1 58.2,33.4 58.2,33.5 58.2,33.4 58.6,33 58.6,33 58.6,33 58.2,32.6 
	58.2,32.6 58.2,32.6 57.8,33 57.4,32.6 57.4,32.6 57.4,32.6 57,33 57,33 57,33 "/>
<polygon points="60.8,33.4 60.8,33.5 60.8,33.4 61.2,33 61.2,33 61.2,33 60.8,32.6 60.8,32.6 60.8,32.6 60.4,33 60.3,33 60.4,33 "/>
<path d="M40.3,34.6h0.5v-0.3h-0.7c-0.1,0-0.2-0.1-0.2-0.3c0-0.2,0-0.4,0.2-0.6c0,0,0.1,0,0.2,0h0.3v-0.3h-0.2
	c-0.4,0-0.7,0.5-0.7,0.9c0,0.1,0,0.2,0.1,0.3h-0.2v0.3L40.3,34.6L40.3,34.6z"/>
<path d="M13.9,34.4L13.9,34.4v1.8c0,0.3,0,0.5-0.2,0.7c-0.4,0.3-0.9,0.4-1.3,0.3c-0.7,0-0.8-0.2-0.8-0.9v-1.9l0,0l0,0h-0.5v3.6
	c0,0.7-0.1,1-0.8,1l0,0v0.5l0,0c0.9,0,1.3-0.4,1.3-1.4v-0.6c0.2,0.2,0.5,0.3,0.8,0.2c0.6,0,1.2-0.1,1.6-0.5c0.2-0.2,0.4-0.5,0.4-0.9
	v-2H13.9L13.9,34.4z"/>
<polygon points="13.2,38.5 13.1,38.5 13.1,38.5 12.8,38.9 12.4,38.5 12.4,38.5 12.3,38.5 12,38.9 11.9,39 12,39 12.3,39.4 
	12.4,39.4 12.4,39.4 12.8,39 13.1,39.4 13.1,39.4 13.2,39.4 13.6,39 13.6,39 13.6,38.9 "/>
<polygon points="15.6,33.4 15.7,33.5 15.7,33.4 16.1,33 16.1,33 16.1,33 15.7,32.6 15.7,32.6 15.6,32.6 15.3,33 15.2,33 15.3,33 "/>
<polygon points="11.2,33.4 11.2,33.5 11.3,33.4 11.7,33 11.7,33 11.7,33 11.3,32.6 11.2,32.6 11.2,32.6 10.8,33 10.8,33 10.8,33 "/>
<path d="M55.4,46.2c-0.7,0-1-0.9-1-1.5s0.2-0.8,1-0.8s0.9,0.1,0.9,0.8S56.1,46.2,55.4,46.2 M55.4,43.5h-1.6c-0.9,0-1.8,0.5-1.8,1.5
	v3.3l0,0h0.5l0,0v-3.3v-0.1c0-0.2,0-0.4,0.1-0.5c0.4-0.3,0.8-0.4,1.2-0.4h0.6c-0.1,0.1-0.2,0.2-0.3,0.4c0,0.2-0.1,0.3-0.1,0.5
	c0,1,0.5,2,1.4,2s1.4-1,1.4-2S56.4,43.5,55.4,43.5"/>
<polygon points="40.4,42.4 40.4,42.4 40.8,42 41.1,42.4 41.2,42.4 41.2,42.4 41.6,42 41.6,42 41.6,41.9 41.2,41.5 41.2,41.5 
	41.1,41.5 40.8,41.9 40.4,41.5 40.4,41.5 40.3,41.5 40,41.9 39.9,42 40,42 40.3,42.4 "/>
<polygon points="31.7,47 31.6,47 31.6,47 31.3,47.4 30.9,47 30.9,47 30.8,47 30.5,47.4 30.4,47.5 30.5,47.5 30.8,47.9 30.9,47.9 
	30.9,47.9 31.2,47.5 31.2,47.5 31.3,47.5 31.6,47.9 31.6,47.9 31.7,47.9 32,47.5 32.1,47.5 32,47.4 "/>
<polygon points="27.5,42 27.5,42 27.9,42.4 28,42.5 28,42.4 28.4,42 28.7,42.4 28.8,42.4 28.8,42.4 29.2,42 29.2,42 29.2,41.9 
	28.8,41.5 28.8,41.5 28.7,41.5 28.4,41.9 28,41.5 27.9,41.5 27.9,41.5 27.5,41.9 "/>
<polygon points="37.6,42 37.6,42 38,42.4 38,42.4 38.1,42.4 38.4,42 38.8,42.4 38.8,42.4 38.8,42.4 39.2,42 39.3,42 39.2,41.9 
	38.8,41.5 38.8,41.5 38.8,41.5 38.4,41.9 38,41.5 38,41.6 38,41.6 37.6,41.9 "/>
<polygon points="34.1,41.5 34.1,41.5 33.7,41.9 33.7,42 33.7,42 34.1,42.4 34.1,42.4 34.1,42.4 34.5,42 34.5,42 34.5,41.9 
	34.1,41.5 "/>
<path d="M48.5,45.3v0.9H48c-0.5,0-0.8-0.5-0.8-1.3s0.3-1.2,0.8-1.2c0.1,0,0.2,0,0.3,0.1C48.5,44,48.5,44.5,48.5,45.3L48.5,45.3z
	 M48,43.4c-0.8,0-1.3,0.7-1.3,1.7s0.4,1.7,1,1.7h0.9l0,0l0,0v0.1c0,0.7-0.1,1-0.8,1l0,0v0.5l0,0c0.9,0,1.3-0.4,1.3-1.4v-0.5l0,0
	v-1.7C49.1,43.9,48.6,43.4,48,43.4C48,43.4,48,43.4,48,43.4"/>
<path d="M19.2,36.9c-0.4-0.5-0.7-1-0.9-1.6c0.3-0.4,1.1-0.3,1.5-0.2c0.3,0.1,0.3,0.2,0.3,0.2l0,0l0,0C19.9,35.8,19.6,36.4,19.2,36.9
	 M22.2,32.3L22.2,32.3v4.1c0,0.2,0,0.3-0.1,0.5c-0.4,0.3-0.9,0.4-1.4,0.4c-0.5,0-0.9,0-1.4-0.2c0.3-0.3,0.5-0.6,0.7-1
	c0,0,0.5-0.7,0.2-1.2c-0.2-0.3-0.5-0.5-0.8-0.4c-0.3,0-0.6,0-1,0l0,0c-0.3,0-0.7,0.1-0.9,0.4c-0.2,0.5,0.2,1.2,0.2,1.2
	c0.2,0.4,0.5,0.7,0.8,1c-0.5,0.2-1.1,0.2-1.6,0.2H17c-0.9,0-1-0.2-1.1-0.7v-2.1h-0.5v3.7c0,0.7-0.1,1-0.8,1l0,0v0.5l0,0
	c0.9,0,1.3-0.4,1.3-1.4v-0.6c0.3,0.2,0.7,0.3,1.1,0.3c0.6,0,1.2-0.1,1.8-0.3l0,0c0.1,0,0.3-0.1,0.4-0.2c0.4,0.3,0.8,0.4,1.3,0.4l0,0
	h0.3c0.9,0,1.9-0.5,1.9-1.4v-4L22.2,32.3L22.2,32.3z"/>
<path d="M49,37.3c-0.7,0-1-0.2-1-0.8s0.3-1.5,1-1.5s0.9,0.8,0.9,1.5S49.6,37.3,49,37.3 M53.1,36.4v-4h-0.5v4.1c0,0.2,0,0.3-0.1,0.5
	c-0.4,0.3-0.9,0.4-1.3,0.3h0c-0.7,0-0.8-0.2-0.8-1l0,0l0,0c0-0.9-0.5-1.8-1.4-1.8c-0.7,0-1.2,0.5-1.3,1.4l0,0l0,0l-0.1,0.5l0,0v0.1
	c0,0.1,0,0.3-0.1,0.4c-0.4,0.3-0.9,0.4-1.3,0.3c-0.7,0-0.7-0.2-0.8-1v-4h-0.5v4.1c0,0.2,0,0.3-0.1,0.5c-0.4,0.3-0.8,0.4-1.3,0.3h0
	c-0.7,0-0.7-0.2-0.8-1v-4h-0.5v4c0,0,0,0.1,0,0.1c0,0.2,0,0.4-0.1,0.5c-0.4,0.3-0.9,0.4-1.3,0.3h-2.3c-0.7,0-0.8-0.3-0.8-0.9
	c0-0.5,0.1-0.9,0.3-1.3c0.2-0.1,0.4-0.2,0.6-0.2l0,0l0,0v-0.4l0,0l0,0h0c-0.9,0-1.4,1-1.4,1.9l0,0v0l0,0c0,1,0.4,1.4,1.3,1.4h2.5
	c0.6,0,1.2-0.2,1.6-0.7c0.1,0.5,0.6,0.9,1.1,0.8h0.1c0.6,0,1.2-0.2,1.6-0.7c0.1,0.4,0.6,0.7,1.1,0.7c0.7,0.1,1.3-0.3,1.7-0.8
	c0.2,0.5,0.6,0.8,1.1,0.8c0.5,0,1-0.2,1.2-0.7c0.2,0.4,0.6,0.7,1.1,0.7h0.1C52.1,37.8,53.1,37.3,53.1,36.4"/>
<path d="M58.1,37.3c-0.7,0-1-0.2-1-0.8s0.2-1.5,1-1.5s0.8,0.7,0.9,1l0,0v0.6C58.9,37.2,58.7,37.3,58.1,37.3 M59.2,37.3
	c0.2,0.3,0.6,0.5,1,0.4c0.7,0.1,1.3-0.2,1.7-0.7c0.2,0.4,0.6,0.7,1.1,0.7c0.6,0,1.2-0.2,1.6-0.5c0.2-0.2,0.4-0.5,0.4-0.9v-1.9h-0.5
	v1.9c0,0.2,0,0.4-0.2,0.6c-0.4,0.3-0.9,0.4-1.3,0.3c-0.7,0-0.8-0.2-0.8-0.9v-2h-0.5v2c0,0.2,0,0.4-0.2,0.6c-0.4,0.3-0.9,0.4-1.3,0.3
	c-0.7,0-0.8-0.2-0.8-0.9l0,0v-0.1l0,0l0,0l0,0c0-0.4-0.3-1.7-1.3-1.7s-1.4,1.2-1.4,2.1s0.4,1.2,1.4,1.2C58.6,37.8,59,37.7,59.2,37.3
	"/>
<path d="M28.6,46.2c-0.7,0-1-0.2-1-0.8s0.2-1.5,1-1.5s0.9,0.8,0.9,1.5S29.3,46.2,28.6,46.2 M38.3,43.8h0.2c0.5,0.1,0.9,0.5,1,1.2
	c0.1,0.3,0,0.6-0.1,0.8c-0.3,0.3-0.6,0.5-1,0.5c-0.4,0-0.7-0.2-1-0.5c-0.1-0.2-0.2-0.5-0.1-0.8C37.4,44.3,37.7,43.9,38.3,43.8
	 M44.4,41.1H44v4.3c0,0.2,0,0.4-0.1,0.5c-0.4,0.3-0.9,0.4-1.4,0.3h0c-0.7,0-0.7-0.2-0.8-0.8v-0.1c0,0,0-0.1,0-0.1v-1.9h-0.5v2
	c0,0.2,0,0.4-0.1,0.5c-0.4,0.3-0.9,0.4-1.4,0.4h-0.5c0.5-0.3,0.7-0.8,0.7-1.4c0-0.5-0.2-1.1-0.7-1.4l0,0h0l0,0l0,0
	c-0.2-0.1-0.4-0.2-0.6-0.2h-0.2c-0.2,0-0.4,0.1-0.7,0.2l0,0l0,0l0,0C37.2,43.9,37,44.4,37,45c-0.1,0.5,0.2,1.1,0.7,1.4
	c-0.2,0-0.4,0-0.5,0c-0.5,0-1-0.2-1.5-0.4c-0.1-0.1-0.1-0.3-0.1-0.5v-2h-0.5v1.9c0,0.2,0,0.4-0.2,0.6c-0.4,0.3-0.9,0.4-1.3,0.3
	c-0.7,0-0.8-0.2-0.8-0.9v-2h-0.5v2c0,0.2,0,0.4-0.2,0.6c-0.4,0.3-0.9,0.4-1.3,0.3c-0.7,0-0.8-0.2-0.8-0.9v-0.1v-0.1
	c0-0.4-0.3-1.7-1.3-1.7s-1.4,1.3-1.4,2.1s0.4,1.2,1.4,1.2c0.6,0,1-0.1,1.2-0.5c0.2,0.3,0.6,0.5,0.9,0.5c0.6,0,1.3-0.2,1.7-0.7
	c0.2,0.4,0.6,0.7,1.1,0.7c0.6,0,1.2-0.2,1.7-0.6c0.2,0.4,0.8,0.5,2,0.6c0.4,0,0.8,0,1.2,0c0.4,0,0.8,0,1.2,0
	c1.1-0.1,1.7-0.2,1.9-0.5c0.2,0.3,0.6,0.5,1,0.5h0.1c0.9,0,1.9-0.5,1.9-1.4v-4.2L44.4,41.1z"/>
<path d="M58.7,43.8c0.1,0,0.2,0,0.3,0.1c0.2,0.2,0.2,0.8,0.2,1.4v1h-0.5c-0.5,0-0.8-0.5-0.8-1.3S58.4,43.8,58.7,43.8 M65.5,45.9
	c-0.4-0.5-0.7-1-0.9-1.6c0.4-0.3,1-0.4,1.5-0.2c0.3,0.1,0.3,0.2,0.3,0.2l0,0l0,0C66.2,44.9,65.9,45.4,65.5,45.9 M71.7,41.2
	L71.7,41.2v4.3c0,0.2,0,0.4-0.1,0.5c-0.4,0.3-0.8,0.4-1.3,0.3h-0.1c-0.7,0-0.7-0.2-0.8-0.9v-4.2h-0.5v4.1l0,0v0.1
	c0,0.2,0,0.3-0.1,0.5c-0.4,0.3-0.9,0.4-1.3,0.3h-0.4c-0.4,0.1-0.9,0-1.3-0.1c0.3-0.3,0.5-0.6,0.8-1c0,0,0.5-0.7,0.2-1.2
	c-0.2-0.3-0.5-0.4-0.8-0.4c-0.3-0.1-0.7-0.1-1,0l0,0c-0.3,0-0.7,0.1-0.9,0.4c-0.2,0.5,0.2,1.2,0.2,1.2c0.2,0.4,0.5,0.7,0.8,1
	c-0.4,0.2-0.8,0.2-1.3,0.2h-0.2c-0.7,0-1.5-0.3-1.6-0.9l0,0v-4h-0.5v4l0,0l0,0l0,0v0.1c0,0.5-0.3,0.8-0.7,0.8h-1.2v-1.7
	c0-0.6-0.4-1.1-1-1.2c0,0,0,0-0.1,0c-0.8,0-1.3,0.7-1.3,1.7s0.4,1.6,1,1.6h0.9v0.1c0,0.7-0.1,0.9-0.8,0.9l0,0v0.5l0,0
	c0.9,0,1.3-0.4,1.3-1.4v-0.1h1.3c0.4,0,0.8-0.3,0.9-0.7c0.5,0.4,1.1,0.7,1.7,0.7c0.5,0.1,1,0,1.4-0.3h0.1c0.1,0,0.2-0.1,0.2-0.1
	c0.4,0.3,0.9,0.4,1.3,0.4l0,0H67h0.5c0.6,0,1.2-0.2,1.6-0.7c0.2,0.4,0.6,0.7,1.1,0.7h0.1c0.9,0,1.8-0.5,1.8-1.4v-4.1L71.7,41.2
	L71.7,41.2z"/>
<polygon points="23.5,32.4 23.4,32.4 23.4,32.4 23.4,37.7 23.4,37.8 23.5,37.8 23.8,37.8 23.9,37.8 23.9,37.7 23.9,32.4 23.9,32.4 
	23.8,32.4 "/>
<polygon points="54.3,37.8 54.3,37.8 54.3,37.7 54.3,32.4 54.3,32.4 54.3,32.4 53.9,32.4 53.8,32.4 53.8,32.4 53.8,37.7 53.8,37.8 
	53.9,37.8 "/>
<polygon points="45.2,41.2 45.2,41.2 45.2,41.2 45.2,46.5 45.2,46.6 45.2,46.6 45.6,46.6 45.6,46.6 45.6,46.5 45.6,41.2 45.6,41.2 
	45.6,41.2 "/>
<polygon points="28.2,39.2 28.2,39.2 28.6,38.8 28.7,38.7 28.6,38.7 28.2,38.3 28.2,38.3 28.2,38.3 27.8,38.7 27.8,38.7 27.8,38.8 
	28.2,39.2 "/>
<path d="M28.3,37.8c0.6,0,1.2-0.3,1.5-0.8c0.2,0.4,0.6,0.7,1.1,0.7h3.4v-0.5h-1c-0.7,0-0.8-0.3-0.8-0.9v-0.8c0-0.3,0.3-0.6,0.6-0.6
	c0,0,0,0,0,0h0.3c0.3,0,0.6,0.3,0.6,0.6v0.2h0.4v-0.2c0-0.6-0.4-1-1-1h-0.5c-0.6,0-1,0.4-1,1v0.9c0,0.3,0.1,0.7,0.2,0.9h-1.2
	c-0.7,0-0.7-0.2-0.8-0.9v-1.9h-0.5v1.9c0,0,0,0.1,0,0.1c0,0.2,0,0.4-0.1,0.5c-0.4,0.3-0.8,0.4-1.3,0.3h-1.1c0.2-0.2,0.3-0.5,0.3-0.8
	c0-0.6-0.2-1.2-0.6-1.6c-0.2-0.2-0.5-0.4-0.9-0.4h-0.7V35h0.7c0.2,0,0.4,0,0.6,0.2c0.3,0.4,0.4,0.9,0.3,1.3c0,0.7-0.2,0.8-0.9,0.8
	h-1v0.5H28.3L28.3,37.8z"/>
<path d="M14.9,43.4c0.1-0.2,0.1-0.5,0.2-0.7l0.1-0.3l0.1,0.5c0,0.2,0.1,0.4,0.1,0.6c0,0,0.3,1.2,0.4,1.4v0.1h-1.3L14.9,43.4z
	 M15.8,45.3l0.4,1.5h0.5l-1.3-4.9h-0.6l-1.3,4.9h0.5l0.4-1.5L15.8,45.3z"/>
<polygon points="26.6,42 23.7,42 23.7,42.5 24.9,42.5 24.9,46.8 25.4,46.8 25.4,42.5 26.6,42.5 "/>
<path d="M12.4,46.8H13L11.5,44l1.4-2.1h-0.6l-1.3,2c-0.1,0.1-0.1,0.2-0.2,0.3l-0.1,0.2V42h-0.5v4.8h0.5V45l0.4-0.6L12.4,46.8z"/>
<path d="M19,46.9c0.3,0,0.7-0.1,1-0.2l-0.1-0.5c-0.3,0.1-0.5,0.2-0.8,0.2c-1,0-1.5-0.8-1.5-2s0.6-2,1.6-2c0.3,0,0.5,0.1,0.8,0.2
	l0.1-0.5c-0.3-0.1-0.6-0.2-0.9-0.2c-1.2,0-2.1,1-2.1,2.5S17.8,46.9,19,46.9"/>
<path d="M22.1,44.1c-0.6-0.3-0.8-0.5-0.8-1c0-0.4,0.3-0.7,0.7-0.8c0,0,0.1,0,0.1,0c0.3,0,0.5,0.1,0.7,0.2l0.1-0.5
	c-0.3-0.2-0.6-0.2-0.9-0.2c-0.7,0-1.2,0.5-1.3,1.2c0,0,0,0.1,0,0.1c0,0.6,0.4,1.2,1,1.4c0.5,0.3,0.8,0.5,0.8,1
	c0,0.4-0.3,0.8-0.7,0.9c0,0-0.1,0-0.1,0c-0.3,0-0.6-0.1-0.9-0.3l-0.1,0.5c0.3,0.2,0.6,0.3,1,0.3c0.7,0,1.3-0.5,1.4-1.2
	c0-0.1,0-0.1,0-0.2C23.2,44.9,22.8,44.3,22.1,44.1"/>
</svg>
