<svg xmlns="http://www.w3.org/2000/svg" width="95.627" height="66.939" viewBox="0 0 95.627 66.939">
  <g id="monshaat-logo" transform="translate(-2.416 -2.35)">
    <path id="svg_106" d="M96.86,95.282a3.344,3.344,0,0,0-1.986-.538H91.745a.871.871,0,0,1-1-.97v-.4a.959.959,0,0,1,.2-.69.874.874,0,0,1,.633-.2H97.2v-2.02H91.914a5.971,5.971,0,0,0-1.337.133,2.107,2.107,0,0,0-1.616,1.481,4.64,4.64,0,0,0-.184,1.408v.444a2.4,2.4,0,0,0,.811,2.059,3.552,3.552,0,0,0,2.119.558h3.086a.983.983,0,0,1,.674.206.736.736,0,0,1,.217.59v.771c0,.593-.258.836-.891.836H89v2.013h5.853a2.654,2.654,0,0,0,2.154-.8,3.545,3.545,0,0,0,.645-2.3v-.636a2.244,2.244,0,0,0-.793-1.945" transform="translate(-44.802 -45.712)" fill="#77777a"/>
    <path id="svg_107" d="M142.307,90.463h-4.341v2.108h4.341c.8,0,1.155.418,1.155,1.357v.449H140.01a2.277,2.277,0,0,0-2.591,2.5v1.447a2.751,2.751,0,0,0,.639,1.955,2.576,2.576,0,0,0,1.952.68h5.415V93.87c0-2.228-1.078-3.407-3.118-3.407m1.155,5.792v2.713h-3.338c-.567,0-.8-.242-.8-.836v-1c0-.621.23-.873.8-.873h3.338Z" transform="translate(-70.038 -45.712)" fill="#77777a"/>
    <path id="svg_108" d="M158.739,89.794h1.379l.514-3.83h-2.407Z" transform="translate(-80.832 -43.378)" fill="#77777a"/>
    <path id="svg_109" d="M171.934,90.372h-4.342V92.48h4.342c.8,0,1.154.418,1.154,1.357v.449h-3.451a2.277,2.277,0,0,0-2.591,2.5v1.447a2.753,2.753,0,0,0,.639,1.955,2.575,2.575,0,0,0,1.953.68h5.415v-7.09c0-2.229-1.078-3.407-3.118-3.407m1.155,5.792v2.713H169.75c-.566,0-.8-.243-.8-.836v-1c0-.621.23-.873.8-.873h3.339Z" transform="translate(-85.408 -45.665)" fill="#77777a"/>
    <path id="svg_110" d="M196.341,88.762V86.886h-2.428v-3.32h-2.02V93.918c0,2.864,1.624,3.465,2.986,3.465H196.3V95.41h-1.293c-.511,0-1.1-.163-1.1-1.434V88.762h2.428Z" transform="translate(-98.298 -42.134)" fill="#77777a"/>
    <path id="svg_111" d="M44.652,90.409h-2.46a3.244,3.244,0,0,0-3.2,3.279v3.966a3.244,3.244,0,0,0,3.2,3.279h2.46a3.245,3.245,0,0,0,3.2-3.279V93.688a3.244,3.244,0,0,0-3.2-3.279m1.233,3.279v3.966a1.25,1.25,0,0,1-1.233,1.264h-2.46a1.25,1.25,0,0,1-1.234-1.264V93.688a1.25,1.25,0,0,1,1.234-1.264h2.46a1.25,1.25,0,0,1,1.233,1.264" transform="translate(-18.975 -45.684)" fill="#77777a"/>
    <path id="svg_112" d="M72.469,94.765c-.014-2.969-2-4.321-3.838-4.321h-4.3v10.49h1.967V92.46h2.338A2,2,0,0,1,70.5,94.378v6.172l.02.384H72.47V94.765Z" transform="translate(-32.118 -45.702)" fill="#77777a"/>
    <path id="svg_113" d="M17.36,94.78v-.015c-.013-2.659-1.605-4.017-3.259-4.272l-.031-.048h-2.1L12,90.47a3.834,3.834,0,0,0-2.434,1.281,3.816,3.816,0,0,0-2.854-1.306H2.416v10.489H4.383V92.461H6.709a1.9,1.9,0,0,1,1.87,1.868c0,.01,0,.019,0,6.3v.3h1.967v-.3c0-5.956,0-6.29,0-6.3a1.871,1.871,0,0,1,1.87-1.868h1.107a2,2,0,0,1,1.865,1.919v6.172l.02.384H17.36Z" transform="translate(0 -45.703)" fill="#77777a"/>
    <path id="svg_114" d="M122.661,91.21V91.2c-.013-2.969-2-4.32-3.838-4.32h-2.336V83.564h-1.968v13.8h1.968V88.891h2.336a2,2,0,0,1,1.868,1.919v6.172l.02.384h1.951Z" transform="translate(-58.157 -42.133)" fill="#77777a"/>
    <path id="svg_115" d="M158.812,34.943c0-1.455-3.047-2.879-3.047-2.879s-3.1,2.981-3,3.071l3.435,2.878s2.609-1.615,2.609-3.07" transform="translate(-77.999 -15.415)" fill="#007297"/>
    <path id="svg_116" d="M128.567,35.136,132,38.014s2.609-1.615,2.609-3.07-3.046-2.879-3.046-2.879-3.1,2.981-3,3.071" transform="translate(-65.444 -15.416)" fill="#007297"/>
    <path id="svg_117" d="M118.553,34.943c0-1.455-3.047-2.879-3.047-2.879s-3.1,2.981-3,3.071l3.434,2.878s2.609-1.615,2.609-3.07" transform="translate(-57.114 -15.415)" fill="#007297"/>
    <path id="svg_118" d="M124.883,22.765c0-1.456-3.046-2.879-3.046-2.879s-3.1,2.982-3,3.071l3.435,2.879s2.608-1.616,2.608-3.07" transform="translate(-60.398 -9.097)" fill="#007297"/>
    <path id="svg_119" d="M143.426,33.483c-.032-.844-.544-3.906-4.689-3.906H136.28l-6.192,6.5v5.6a3.972,3.972,0,0,0,.095.844c-1.814.007-3.949.01-5-1.784a4.766,4.766,0,0,1-.559-2.408V33.071L121.371,36.4v5.273a6.342,6.342,0,0,0,.063.844c-1.809.007-3.933,0-4.982-1.784a4.778,4.778,0,0,1-.56-2.408V30.387l-3.251,3.331v7.957a6.422,6.422,0,0,0,.063.844,4.449,4.449,0,0,1-2.3-1.022,4.093,4.093,0,0,1-1.514-3.153V32.049l-3.25,3.33v6.3a4.216,4.216,0,0,0,.095.846A4.424,4.424,0,0,1,103.4,41.5a4.093,4.093,0,0,1-1.513-3.153V30.387l-3.25,3.331v7.957a4.159,4.159,0,0,0,.094.844c-1.815.007-3.958.013-5.013-1.784a4.766,4.766,0,0,1-.559-2.407V18.1L89.9,21.429v20.44l.009-.009a3.86,3.86,0,0,0,1.57,3.268,5.611,5.611,0,0,0,2.945.734c.43.009.859-.013,1.289-.014.16,0,.487-.345.557-.406.41-.36.8-.751,1.183-1.143s.765-.789,1.115-1.211c.025-.03.125-.173.219-.309a4.107,4.107,0,0,0,1.354,2.049,4.3,4.3,0,0,0,2.576,1.037c.157,0,.491-.346.557-.406.41-.361.8-.752,1.183-1.143s.765-.789,1.116-1.212c.023-.027.127-.174.222-.311a4.116,4.116,0,0,0,1.351,2.036,4.3,4.3,0,0,0,2.576,1.037c.157,0,.491-.346.557-.406.41-.361.8-.752,1.183-1.143s.764-.789,1.116-1.212c.019-.024.1-.136.181-.253a3.454,3.454,0,0,0,1.458,2.278,5.611,5.611,0,0,0,2.945.734c.429.009.859-.013,1.288-.014.159,0,.487-.345.556-.406.41-.36.8-.751,1.183-1.143s.765-.789,1.116-1.211c.021-.026.1-.136.18-.252l0,.014a3.455,3.455,0,0,0,1.458,2.278,5.612,5.612,0,0,0,2.945.734c.43.009.86-.013,1.289-.014.159,0,.487-.345.556-.406.41-.36.8-.751,1.183-1.143s.765-.789,1.116-1.211c.023-.028.116-.161.206-.291.681,2.291,3.458,3.067,5.685,3.067h.759l6.741-6.783s0-5.515,0-5.6m-7.169,8.7c-3.068,0-2.908-2.619-2.92-3.836v-5.5h4.687c1.624,0,2.152,2.461,2.152,5.34,0,.072,0,3.245,0,4l-3.923,0" transform="translate(-45.388 -8.171)" fill="#007297"/>
    <path id="svg_120" d="M38.35,39.589l3.543,2.972s2.74-1.7,2.74-3.225-3.2-3.022-3.2-3.022-2.608,2.507-3.072,3.1c-.042-1.517-3.193-2.992-3.193-2.992s-3.259,3.131-3.147,3.223l3.605,3.023s2.558-1.589,2.723-3.076" transform="translate(-15.358 -17.62)" fill="#007297"/>
    <path id="svg_121" d="M89,7.413l3.945-3.838V2.35L90.37,4.8,84.824,2.941l-.277-.092L80.7,6.66v1.2l2.379-2.381L88.741,7.33Z" transform="translate(-40.612 0)" fill="#007297"/>
    <path id="svg_122" d="M40.228,49.773c-.23-.412-.763-1.2-.763-1.2L35.9,52.038s1.542,2.6,1.566,4.213c.01.669,0-.023,0,.646v1.3H9.367c-2.512,0-3.528-.7-3.532-4.138l1.722-1.771V50.305l-5.141,5.28c0,.026,0,1.887.005,1.947a4.6,4.6,0,0,0,.739,2.511,3.608,3.608,0,0,0,1.75,1.281,10.162,10.162,0,0,0,3.583.348H35.8l5.238-4.711v-1.5c0-1.938.173-3.929-.809-5.689" transform="translate(0 -23.981)" fill="#007297"/>
    <path id="svg_123" d="M4.019,134.618h0c-.041-.011-.185-.049-.43-.11a3.939,3.939,0,0,1-.5-.15.4.4,0,0,1-.184-.137.417.417,0,0,1-.045-.21v-.077a.367.367,0,0,1,.151-.289.7.7,0,0,1,.461-.13.826.826,0,0,1,.517.136.461.461,0,0,1,.168.384v.045H4.6v-.045a.967.967,0,0,0-.061-.351.744.744,0,0,0-.169-.262.877.877,0,0,0-.253-.171,1.23,1.23,0,0,0-.3-.1,1.964,1.964,0,0,0-.336-.028,1.249,1.249,0,0,0-.757.218.7.7,0,0,0-.3.585v.041a.923.923,0,0,0,.133.513.816.816,0,0,0,.472.3c.037.012.154.042.429.112a3.932,3.932,0,0,1,.5.15.383.383,0,0,1,.182.139.432.432,0,0,1,.046.214v.094a.37.37,0,0,1-.151.291.706.706,0,0,1-.461.129.823.823,0,0,1-.516-.136.458.458,0,0,1-.166-.384v-.136H2.436v.136a.949.949,0,0,0,.063.351.756.756,0,0,0,.17.262.9.9,0,0,0,.252.17,1.237,1.237,0,0,0,.306.1,2.048,2.048,0,0,0,.337.028,1.263,1.263,0,0,0,.758-.215.7.7,0,0,0,.3-.586v-.071a.911.911,0,0,0-.134-.512.827.827,0,0,0-.471-.3" transform="translate(0 -67.845)" fill="#77777a"/>
    <path id="svg_124" d="M17.287,134.7a.981.981,0,0,0-.281.11.793.793,0,0,0-.236.195.889.889,0,0,0-.156.306,1.367,1.367,0,0,0-.059.417v.263a1.362,1.362,0,0,0,.059.417.887.887,0,0,0,.156.305.837.837,0,0,0,.235.2,1.011,1.011,0,0,0,.282.109,1.4,1.4,0,0,0,.307.031h.977v-2.38h-.977a1.434,1.434,0,0,0-.307.031m-.315,1.125a.919.919,0,0,1,.15-.594.587.587,0,0,1,.472-.175h.562v1.608h-.562a.589.589,0,0,1-.472-.173.92.92,0,0,1-.15-.595Z" transform="translate(-7.335 -68.646)" fill="#77777a"/>
    <rect id="svg_125" width="0.414" height="3.264" transform="translate(12.006 65.141)" fill="#77777a"/>
    <rect id="svg_126" width="0.415" height="3.264" transform="translate(13.187 65.141)" fill="#77777a"/>
    <path id="svg_127" d="M28.693,134.312a.4.4,0,0,1-.135-.326v-.071a.337.337,0,0,1,.143-.287.7.7,0,0,1,.429-.112.719.719,0,0,1,.432.109.337.337,0,0,1,.142.291v.173h.415v-.177a.873.873,0,0,0-.017-.167.8.8,0,0,0-.248-.406.869.869,0,0,0-.294-.148,1.536,1.536,0,0,0-.863,0,.869.869,0,0,0-.292.153.727.727,0,0,0-.167.207.792.792,0,0,0-.079.2.877.877,0,0,0-.017.16V134a.841.841,0,0,0,.013.15,1.123,1.123,0,0,0,.049.17.657.657,0,0,0,.113.191.415.415,0,0,1-.175.765v.141a.905.905,0,0,0,.031.237.765.765,0,0,0,.106.227.777.777,0,0,0,.191.192.944.944,0,0,0,.288.129,1.437,1.437,0,0,0,.391.049h.97v-1.433h.345v-.388H29.13a.667.667,0,0,1-.437-.117m.457,1.552a.668.668,0,0,1-.443-.13.411.411,0,0,1-.149-.33v-.127a.434.434,0,0,1,.13-.33.477.477,0,0,1,.351-.129H29.7v1.046H29.15Z" transform="translate(-13.347 -67.846)" fill="#77777a"/>
    <path id="svg_128" d="M36.923,135.667l-.872-2.4-.011-.029H35.4v3.068h.446V133.9l.862,2.377.01.03h.409l.884-2.422v2.422h.446v-3.068H37.8Z" transform="translate(-17.11 -67.905)" fill="#77777a"/>
    <path id="svg_129" d="M44.98,134.9h0a.878.878,0,0,0-.238-.2,1.061,1.061,0,0,0-.283-.11,1.509,1.509,0,0,0-.613,0,.984.984,0,0,0-.282.11.82.82,0,0,0-.236.2.909.909,0,0,0-.156.305,1.365,1.365,0,0,0-.059.418v.363a1.361,1.361,0,0,0,.059.418.915.915,0,0,0,.156.306.836.836,0,0,0,.235.2,1.02,1.02,0,0,0,.282.11,1.431,1.431,0,0,0,.307.031,1.365,1.365,0,0,0,.339-.041,1.064,1.064,0,0,0,.3-.129.781.781,0,0,0,.246-.252,1.044,1.044,0,0,0,.138-.376l.009-.052h-.43l-.009.034a.539.539,0,0,1-.2.328.673.673,0,0,1-.395.1.59.59,0,0,1-.471-.169.841.841,0,0,1-.151-.533H45.2v-.338a1.382,1.382,0,0,0-.059-.418.917.917,0,0,0-.157-.306m-.2.674H43.532a.751.751,0,0,1,.165-.47.61.61,0,0,1,.455-.153.621.621,0,0,1,.459.153.737.737,0,0,1,.167.47" transform="translate(-21.113 -68.591)" fill="#77777a"/>
    <path id="svg_130" d="M50.288,133.719h-.569a1.445,1.445,0,0,0-.306.03,1,1,0,0,0-.283.111.813.813,0,0,0-.235.2.922.922,0,0,0-.156.307,1.369,1.369,0,0,0-.059.418v.256a1.361,1.361,0,0,0,.059.417.887.887,0,0,0,.156.305.834.834,0,0,0,.235.2.985.985,0,0,0,.282.109,1.4,1.4,0,0,0,.307.031H50.7v-3.263h-.409ZM49.1,134.874a.918.918,0,0,1,.15-.594.588.588,0,0,1,.472-.175h.569v1.608h-.569a.59.59,0,0,1-.472-.173.92.92,0,0,1-.15-.595Z" transform="translate(-24.002 -67.694)" fill="#77777a"/>
    <rect id="svg_131" width="0.415" height="2.381" transform="translate(27.465 66.024)" fill="#77777a"/>
    <path id="svg_132" d="M58.522,135.951a1,1,0,0,1-.136.6.566.566,0,0,1-.466.168.559.559,0,0,1-.464-.167,1.006,1.006,0,0,1-.134-.6V134.67h-.415v1.372a1.52,1.52,0,0,0,.053.416.908.908,0,0,0,.146.307.771.771,0,0,0,.225.2.965.965,0,0,0,.278.109,1.563,1.563,0,0,0,.622,0,.95.95,0,0,0,.277-.109.779.779,0,0,0,.225-.2.885.885,0,0,0,.146-.307,1.5,1.5,0,0,0,.053-.416V134.67h-.411Z" transform="translate(-28.269 -68.646)" fill="#77777a"/>
    <path id="svg_133" d="M73.189,136.31h1.766v-.386H73.635v-.971h1.246v-.386H73.635v-.935h1.319v-.389H73.189Z" transform="translate(-36.716 -67.905)" fill="#77777a"/>
    <path id="svg_134" d="M88.888,134.9h0a.871.871,0,0,0-.238-.2,1.052,1.052,0,0,0-.282-.11,1.511,1.511,0,0,0-.613,0,.989.989,0,0,0-.282.11.825.825,0,0,0-.236.2.9.9,0,0,0-.157.305,1.365,1.365,0,0,0-.059.418v.363a1.361,1.361,0,0,0,.059.418.907.907,0,0,0,.157.306.83.83,0,0,0,.235.2,1.014,1.014,0,0,0,.282.11,1.423,1.423,0,0,0,.306.031,1.365,1.365,0,0,0,.339-.041,1.059,1.059,0,0,0,.3-.129.778.778,0,0,0,.246-.251,1.042,1.042,0,0,0,.138-.377l.009-.052h-.43l-.008.034a.539.539,0,0,1-.2.328.675.675,0,0,1-.4.1.589.589,0,0,1-.47-.169.837.837,0,0,1-.152-.533H89.1v-.338a1.382,1.382,0,0,0-.059-.418.9.9,0,0,0-.157-.306m-.2.674H87.44a.754.754,0,0,1,.165-.47.611.611,0,0,1,.455-.153.622.622,0,0,1,.46.153.737.737,0,0,1,.167.47" transform="translate(-43.892 -68.591)" fill="#77777a"/>
    <path id="svg_135" d="M98.023,135.008a.823.823,0,0,0-.237-.195.992.992,0,0,0-.282-.11,1.442,1.442,0,0,0-.308-.03h-.977v3.264h.415v-.884H97.2a1.414,1.414,0,0,0,.308-.031.992.992,0,0,0,.282-.109.864.864,0,0,0,.238-.2.891.891,0,0,0,.157-.306,1.379,1.379,0,0,0,.059-.417v-.263a1.385,1.385,0,0,0-.059-.417.893.893,0,0,0-.157-.306m-.2.82v.07a.91.91,0,0,1-.152.594.592.592,0,0,1-.476.173h-.562v-1.608H97.2a.6.6,0,0,1,.476.175.917.917,0,0,1,.152.595" transform="translate(-48.664 -68.647)" fill="#77777a"/>
    <rect id="svg_136" width="0.415" height="2.381" transform="translate(51.919 66.024)" fill="#77777a"/>
    <path id="svg_137" d="M108.98,135.689c-.051-.014-.184-.048-.376-.091s-.341-.083-.421-.11a.394.394,0,0,1-.172-.091.231.231,0,0,1-.038-.15v-.02a.219.219,0,0,1,.124-.191.782.782,0,0,1,.4-.083c.542,0,.542.244.542.325v.045h.415v-.045a.682.682,0,0,0-.078-.331.6.6,0,0,0-.217-.226,1.117,1.117,0,0,0-.3-.117,1.566,1.566,0,0,0-.362-.039,1.226,1.226,0,0,0-.669.169.534.534,0,0,0-.273.472v.025a.647.647,0,0,0,.114.4.7.7,0,0,0,.371.224c.042.012.162.042.369.092s.34.085.422.113a.4.4,0,0,1,.176.093.221.221,0,0,1,.04.147v.044c0,.079,0,.319-.5.319-.536,0-.536-.247-.536-.329v-.191h-.417v.191a.7.7,0,0,0,.077.33.6.6,0,0,0,.218.227,1.057,1.057,0,0,0,.3.12,1.666,1.666,0,0,0,.7,0,1.041,1.041,0,0,0,.29-.114.571.571,0,0,0,.212-.222.69.69,0,0,0,.076-.329v-.036a.66.66,0,0,0-.114-.405.715.715,0,0,0-.371-.222" transform="translate(-54.546 -68.591)" fill="#77777a"/>
    <path id="svg_138" d="M114.6,134.9a.855.855,0,0,0-.237-.2,1.032,1.032,0,0,0-.283-.11,1.516,1.516,0,0,0-.614,0,1,1,0,0,0-.28.11.818.818,0,0,0-.236.2.893.893,0,0,0-.157.305,1.389,1.389,0,0,0-.058.418v.363a1.383,1.383,0,0,0,.058.418.9.9,0,0,0,.157.306.839.839,0,0,0,.234.2,1.023,1.023,0,0,0,.281.11,1.44,1.44,0,0,0,.308.031,1.368,1.368,0,0,0,.339-.041,1.072,1.072,0,0,0,.3-.129.781.781,0,0,0,.245-.251,1.061,1.061,0,0,0,.139-.377l.009-.052h-.43l-.009.034a.54.54,0,0,1-.2.328.668.668,0,0,1-.394.1.59.59,0,0,1-.471-.169.838.838,0,0,1-.151-.533h1.666v-.338a1.383,1.383,0,0,0-.059-.418.9.9,0,0,0-.158-.306m-.2.674h-1.246a.745.745,0,0,1,.164-.47.612.612,0,0,1,.456-.153.622.622,0,0,1,.46.153.735.735,0,0,1,.167.47" transform="translate(-57.234 -68.591)" fill="#77777a"/>
    <path id="svg_139" d="M119.718,135.689c-.052-.015-.189-.049-.375-.091s-.341-.083-.421-.11a.413.413,0,0,1-.173-.09.241.241,0,0,1-.037-.15v-.02a.218.218,0,0,1,.124-.191.783.783,0,0,1,.4-.083c.542,0,.542.244.542.325v.045h.414v-.045a.686.686,0,0,0-.077-.331.6.6,0,0,0-.217-.226,1.113,1.113,0,0,0-.3-.117,1.6,1.6,0,0,0-.362-.039,1.226,1.226,0,0,0-.67.169.534.534,0,0,0-.273.472v.025a.646.646,0,0,0,.114.4.7.7,0,0,0,.371.224c.044.012.168.044.369.092s.341.086.422.113a.408.408,0,0,1,.177.093.221.221,0,0,1,.04.147v.044c0,.079,0,.319-.5.319-.536,0-.536-.247-.536-.329v-.191h-.416v.191a.7.7,0,0,0,.077.33.591.591,0,0,0,.218.227,1.024,1.024,0,0,0,.3.12,1.664,1.664,0,0,0,.7,0,1.02,1.02,0,0,0,.288-.114.556.556,0,0,0,.213-.222.686.686,0,0,0,.077-.329v-.036a.657.657,0,0,0-.114-.405.716.716,0,0,0-.372-.222" transform="translate(-60.118 -68.591)" fill="#77777a"/>
    <path id="svg_140" d="M126.281,133.7a.668.668,0,0,1,.516-.184.7.7,0,0,1,.487.155.757.757,0,0,1,.2.5l0,.041h.448v-.045a1.257,1.257,0,0,0-.067-.41.876.876,0,0,0-.173-.3.861.861,0,0,0-.256-.192,1.172,1.172,0,0,0-.3-.106,1.846,1.846,0,0,0-.672,0,1.066,1.066,0,0,0-.307.11.859.859,0,0,0-.254.2.909.909,0,0,0-.17.306,1.3,1.3,0,0,0-.062.419v1.051a1.314,1.314,0,0,0,.062.419.915.915,0,0,0,.17.307.863.863,0,0,0,.254.2,1.13,1.13,0,0,0,.308.11,1.756,1.756,0,0,0,.339.031,2.212,2.212,0,0,0,.651-.083,1.16,1.16,0,0,0,.47-.278l.014-.012v-1.325h-.992V135h.547v.77a.865.865,0,0,1-.254.114,1.773,1.773,0,0,1-.435.04.67.67,0,0,1-.516-.184.882.882,0,0,1-.17-.6v-.83a.879.879,0,0,1,.169-.6" transform="translate(-63.94 -67.847)" fill="#77777a"/>
    <path id="svg_141" d="M133.538,134.9h0a.847.847,0,0,0-.237-.2,1.035,1.035,0,0,0-.283-.11,1.446,1.446,0,0,0-.308-.031,1.422,1.422,0,0,0-.306.031,1.027,1.027,0,0,0-.282.11.828.828,0,0,0-.235.2.9.9,0,0,0-.156.305,1.35,1.35,0,0,0-.059.418v.363a1.346,1.346,0,0,0,.059.418.906.906,0,0,0,.156.306.834.834,0,0,0,.235.2,1.021,1.021,0,0,0,.282.11,1.416,1.416,0,0,0,.306.031,1.365,1.365,0,0,0,.339-.041,1.084,1.084,0,0,0,.3-.129.8.8,0,0,0,.244-.251,1.042,1.042,0,0,0,.138-.377l.009-.052h-.429l-.008.034a.546.546,0,0,1-.2.328.673.673,0,0,1-.395.1.6.6,0,0,1-.47-.169.845.845,0,0,1-.152-.533h1.666v-.338a1.382,1.382,0,0,0-.059-.418.9.9,0,0,0-.157-.306m-.2.674H132.09a.751.751,0,0,1,.165-.47.609.609,0,0,1,.455-.153.623.623,0,0,1,.46.153.74.74,0,0,1,.167.47" transform="translate(-67.056 -68.591)" fill="#77777a"/>
    <path id="svg_142" d="M139.159,134.906a.74.74,0,0,0-.337-.181,2.027,2.027,0,0,0-.512-.053h-.892v2.38h.415v-1.994h.518a1.276,1.276,0,0,1,.318.033.383.383,0,0,1,.184.1.375.375,0,0,1,.093.16.987.987,0,0,1,.027.249v1.453h.415v-1.4a1.6,1.6,0,0,0-.051-.436.686.686,0,0,0-.179-.307" transform="translate(-70.037 -68.647)" fill="#77777a"/>
    <path id="svg_143" d="M144.728,134.9h0a.84.84,0,0,0-.237-.2,1.052,1.052,0,0,0-.282-.11,1.509,1.509,0,0,0-.613,0,1,1,0,0,0-.282.11.829.829,0,0,0-.235.2.9.9,0,0,0-.156.305,1.351,1.351,0,0,0-.059.418v.363a1.347,1.347,0,0,0,.059.418.906.906,0,0,0,.156.306.833.833,0,0,0,.235.2,1.019,1.019,0,0,0,.282.11,1.424,1.424,0,0,0,.307.031,1.365,1.365,0,0,0,.339-.041,1.088,1.088,0,0,0,.3-.129.8.8,0,0,0,.244-.251,1.051,1.051,0,0,0,.138-.377l.009-.052h-.43l-.009.034a.539.539,0,0,1-.2.328.673.673,0,0,1-.395.1.59.59,0,0,1-.471-.169.84.84,0,0,1-.151-.533h1.665v-.338a1.382,1.382,0,0,0-.059-.418.908.908,0,0,0-.157-.306m-.2.674H143.28a.751.751,0,0,1,.165-.47.609.609,0,0,1,.455-.153.623.623,0,0,1,.46.153.737.737,0,0,1,.166.47" transform="translate(-72.862 -68.591)" fill="#77777a"/>
    <path id="svg_144" d="M148.607,137.052h.415v-1.994h.663v-.386h-1.078Z" transform="translate(-75.842 -68.646)" fill="#77777a"/>
    <path id="svg_145" d="M152.3,134.7a.965.965,0,0,0-.282.11.791.791,0,0,0-.235.195.889.889,0,0,0-.157.306,1.367,1.367,0,0,0-.059.417v.263a1.361,1.361,0,0,0,.059.417.887.887,0,0,0,.157.305.82.82,0,0,0,.235.2.976.976,0,0,0,.282.109,1.394,1.394,0,0,0,.307.031h.977v-2.38H152.6a1.423,1.423,0,0,0-.307.031m-.316,1.125a.919.919,0,0,1,.15-.594.586.586,0,0,1,.472-.175h.562v1.608H152.6a.587.587,0,0,1-.472-.173.92.92,0,0,1-.15-.595Z" transform="translate(-77.377 -68.646)" fill="#77777a"/>
    <rect id="svg_146" width="0.414" height="3.264" transform="translate(76.975 65.141)" fill="#77777a"/>
    <path id="svg_147" d="M162.337,133.243H161.8l-.969,3.01-.019.058h.466l.2-.64h1.171l.2.64h.465l-.973-3.037-.011-.031Zm.188,2.038h-.92l.459-1.428Z" transform="translate(-82.172 -67.906)" fill="#77777a"/>
    <path id="svg_148" d="M168.619,135.951a1,1,0,0,1-.137.6.567.567,0,0,1-.466.168.559.559,0,0,1-.464-.167,1,1,0,0,1-.134-.6V134.67H167v1.372a1.519,1.519,0,0,0,.053.416.908.908,0,0,0,.146.307.767.767,0,0,0,.225.2.973.973,0,0,0,.278.109,1.563,1.563,0,0,0,.622,0,.948.948,0,0,0,.277-.109.775.775,0,0,0,.225-.2.9.9,0,0,0,.146-.307,1.5,1.5,0,0,0,.054-.416V134.67h-.411Z" transform="translate(-85.386 -68.646)" fill="#77777a"/>
    <path id="svg_149" d="M177.92,133.953a.722.722,0,0,0-.337-.18,2.05,2.05,0,0,0-.511-.053h-.481v-.883h-.415V136.1h.415v-1.994h.518a1.274,1.274,0,0,1,.318.033.355.355,0,0,1,.277.259.923.923,0,0,1,.027.249V136.1h.415v-1.4a1.626,1.626,0,0,0-.049-.435.691.691,0,0,0-.177-.309" transform="translate(-90.145 -67.695)" fill="#77777a"/>
    <path id="svg_150" d="M183.486,134.9h0a.856.856,0,0,0-.237-.2,1.023,1.023,0,0,0-.283-.109,1.492,1.492,0,0,0-.613,0,.978.978,0,0,0-.282.109.824.824,0,0,0-.236.2.9.9,0,0,0-.156.305,1.364,1.364,0,0,0-.059.418v.363a1.361,1.361,0,0,0,.059.418.906.906,0,0,0,.156.306.841.841,0,0,0,.235.2,1.011,1.011,0,0,0,.282.11,1.432,1.432,0,0,0,.307.031,1.451,1.451,0,0,0,.308-.031,1,1,0,0,0,.282-.11.845.845,0,0,0,.237-.2.9.9,0,0,0,.157-.306,1.38,1.38,0,0,0,.059-.418v-.363a1.383,1.383,0,0,0-.059-.418.9.9,0,0,0-.158-.305m-.2.813v.182a.913.913,0,0,1-.153.594.6.6,0,0,1-.476.173.591.591,0,0,1-.472-.172.925.925,0,0,1-.15-.595v-.182a.912.912,0,0,1,.15-.591.591.591,0,0,1,.472-.171.6.6,0,0,1,.477.171.9.9,0,0,1,.152.591" transform="translate(-92.969 -68.591)" fill="#77777a"/>
    <rect id="svg_151" width="0.415" height="2.381" transform="translate(93.077 66.024)" fill="#77777a"/>
    <path id="svg_152" d="M193.778,133.242h-.416v.688h-.382v.386h.382v1.994h.416v-1.994h.4v-.386h-.4Z" transform="translate(-98.863 -67.905)" fill="#77777a"/>
    <path id="svg_153" d="M198.174,134.67l-.723,1.914-.71-1.884-.011-.029h-.442l.857,2.261a.257.257,0,0,0,.126.139l-.33.864h.441l1.24-3.264Z" transform="translate(-100.578 -68.646)" fill="#77777a"/>
    <path id="svg_154" d="M187.367,137.052h.415v-1.994h.663v-.386h-1.078Z" transform="translate(-95.95 -68.646)" fill="#77777a"/>
    <path id="svg_155" d="M101.837,137.052h.415v-1.994h.663v-.386h-1.078Z" transform="translate(-51.578 -68.646)" fill="#77777a"/>
    <path id="svg_156" d="M92.769,137.052h.414v-1.994h.664v-.386H92.769Z" transform="translate(-46.874 -68.646)" fill="#77777a"/>
    <path id="svg_157" d="M173.188,133.242h-.414v.688h-.382v.386h.382v1.994h.414v-1.994h.4v-.386h-.4Z" transform="translate(-88.181 -67.905)" fill="#77777a"/>
    <path id="svg_158" d="M84.527,133.242h-.415v.688H83.73v.386h.382v1.994h.415v-1.994h.4v-.386h-.4Z" transform="translate(-42.185 -67.905)" fill="#77777a"/>
    <path id="svg_159" d="M80.053,134.906a.744.744,0,0,0-.338-.181,2.025,2.025,0,0,0-.512-.053h-.893v2.38h.415v-1.994h.518a1.274,1.274,0,0,1,.318.033.36.36,0,0,1,.278.258.988.988,0,0,1,.026.249v1.453h.415v-1.4a1.606,1.606,0,0,0-.051-.436.694.694,0,0,0-.178-.307" transform="translate(-39.373 -68.647)" fill="#77777a"/>
    <path id="svg_160" d="M105.663,133.334a.178.178,0,0,0-.085-.078.346.346,0,0,0-.262,0,.174.174,0,0,0-.083.076.349.349,0,0,0-.029.073.275.275,0,0,0-.008.064.3.3,0,0,0,.008.068.312.312,0,0,0,.028.07.175.175,0,0,0,.084.077h0a.342.342,0,0,0,.262,0,.177.177,0,0,0,.083-.076.31.31,0,0,0,.029-.074.283.283,0,0,0,0-.131.276.276,0,0,0-.028-.071" transform="translate(-53.321 -67.899)" fill="#77777a"/>
    <path id="svg_161" d="M54.845,133.333a.184.184,0,0,0-.084-.077.344.344,0,0,0-.262,0,.183.183,0,0,0-.084.077.3.3,0,0,0-.027.07.24.24,0,0,0-.008.066.287.287,0,0,0,.007.066.346.346,0,0,0,.029.073.176.176,0,0,0,.084.076.3.3,0,0,0,.131.026.29.29,0,0,0,.13-.026.173.173,0,0,0,.085-.076.331.331,0,0,0,.029-.073.316.316,0,0,0,.007-.066.307.307,0,0,0-.007-.065.374.374,0,0,0-.029-.072" transform="translate(-26.958 -67.899)" fill="#77777a"/>
    <path id="svg_162" d="M191.191,133.334a.175.175,0,0,0-.084-.078.347.347,0,0,0-.263,0,.172.172,0,0,0-.082.076.384.384,0,0,0-.03.073.307.307,0,0,0-.008.064.274.274,0,0,0,.037.138.173.173,0,0,0,.084.077h0a.341.341,0,0,0,.261,0,.174.174,0,0,0,.083-.076.31.31,0,0,0,.03-.074.36.36,0,0,0,.007-.065.364.364,0,0,0-.007-.065.261.261,0,0,0-.029-.071" transform="translate(-97.692 -67.899)" fill="#77777a"/>
    <path id="svg_163" d="M65.7,134.913a.681.681,0,0,0-.319-.187,1.816,1.816,0,0,0-.486-.056H62.677v2.381h.415v-1.994h.966v1.994h.414v-1.994h.412a1.31,1.31,0,0,1,.319.033.377.377,0,0,1,.182.1.369.369,0,0,1,.091.161.945.945,0,0,1,.026.249v1.453h.415v-1.4a1.655,1.655,0,0,0-.047-.43.727.727,0,0,0-.166-.305" transform="translate(-31.263 -68.646)" fill="#77777a"/>
    <path id="svg_164" d="M11.5,134.913a.681.681,0,0,0-.319-.187,1.822,1.822,0,0,0-.487-.056H8.472v2.381h.415v-1.994h.965v1.994h.415v-1.994h.412a1.3,1.3,0,0,1,.318.033.379.379,0,0,1,.183.1.373.373,0,0,1,.09.161.962.962,0,0,1,.027.249v1.453h.414v-1.4a1.714,1.714,0,0,0-.046-.43.734.734,0,0,0-.166-.305" transform="translate(-3.142 -68.646)" fill="#77777a"/>
    <rect id="svg_165" width="0.432" height="4.217" transform="translate(97.611 58.996)" fill="#77777a"/>
    <path id="svg_166" d="M185.626,120.067v3.781h-1.009v-.933a2.679,2.679,0,0,0-.07-.669.935.935,0,0,0-.224-.424.846.846,0,0,0-.379-.223,2.045,2.045,0,0,0-.56-.065h-.71v.435h.737a1.286,1.286,0,0,1,.345.038.552.552,0,0,1,.237.139.571.571,0,0,1,.147.274,1.8,1.8,0,0,1,.046.44v.988h-.429v-.618a1.226,1.226,0,0,0-.051-.366.775.775,0,0,0-.135-.262.734.734,0,0,0-.2-.167.88.88,0,0,0-.244-.094,1.331,1.331,0,0,0-.538,0,.877.877,0,0,0-.243.094.712.712,0,0,0-.2.167.781.781,0,0,0-.134.262,1.21,1.21,0,0,0-.051.366v.027a2.017,2.017,0,0,0,.051.471.775.775,0,0,0,.061.12H180.76v-2.21h-.433v2.21h-1.582v-2.21h-.432v2.21h-1.48v-1.291a1.215,1.215,0,0,0-.05-.365.762.762,0,0,0-.135-.262.719.719,0,0,0-.2-.168.858.858,0,0,0-.244-.094,1.252,1.252,0,0,0-.269-.028h-.377a1.207,1.207,0,0,0-.249.028.855.855,0,0,0-.243.094.7.7,0,0,0-.2.168.769.769,0,0,0-.134.262,1.217,1.217,0,0,0-.05.365v.809a1.212,1.212,0,0,0,.05.365.8.8,0,0,0,.134.264.707.707,0,0,0,.2.169.876.876,0,0,0,.243.1,1.256,1.256,0,0,0,.269.024h10.484v-4.216h-.433Zm-9.224,3.784h-.827a.439.439,0,0,1-.352-.131.669.669,0,0,1-.111-.434v-.647a.662.662,0,0,1,.111-.432.416.416,0,0,1,.332-.13h.378a.446.446,0,0,1,.355.13.656.656,0,0,1,.113.432v1.212Zm6.921,0h-.469a.455.455,0,0,1-.352-.131.529.529,0,0,1-.112-.3c0-.023,0-.152,0-.173a.6.6,0,0,1,.11-.367.44.44,0,0,1,.352-.13.448.448,0,0,1,.356.13.659.659,0,0,1,.113.433v.537Z" transform="translate(-89.367 -61.07)" fill="#77777a"/>
    <path id="svg_167" d="M182.557,121.441h.049v-.3h-.354a.17.17,0,0,1-.092-.182c.021-.1.138-.16.313-.16h.174v-.3h-.216c-.379,0-.575.147-.582.442a.615.615,0,0,0,.038.2h-.262v.3h.932Z" transform="translate(-92.971 -61.293)" fill="#77777a"/>
    <path id="svg_168" d="M187.305,130.278a.354.354,0,0,0,.149.029.343.343,0,0,0,.149-.029.178.178,0,0,0,.084-.075.319.319,0,0,0,.041-.157.333.333,0,0,0-.009-.074.39.39,0,0,0-.033-.082.174.174,0,0,0-.084-.075.4.4,0,0,0-.3,0,.176.176,0,0,0-.084.075.483.483,0,0,0-.033.082.334.334,0,0,0,0,.147.508.508,0,0,0,.033.083.18.18,0,0,0,.084.075" transform="translate(-95.853 -66.113)" fill="#77777a"/>
    <path id="svg_169" d="M185.843,130.278a.177.177,0,0,0,.085-.075.4.4,0,0,0,.033-.083.346.346,0,0,0,.008-.074.333.333,0,0,0-.008-.074.453.453,0,0,0-.033-.082.175.175,0,0,0-.085-.075.4.4,0,0,0-.3,0,.174.174,0,0,0-.084.075.387.387,0,0,0-.033.082.317.317,0,0,0,0,.147.4.4,0,0,0,.033.083.175.175,0,0,0,.084.075.392.392,0,0,0,.3,0" transform="translate(-94.94 -66.113)" fill="#77777a"/>
    <path id="svg_170" d="M177.269,121.711a.177.177,0,0,0,.084.076.4.4,0,0,0,.3,0,.176.176,0,0,0,.084-.076.34.34,0,0,0,.033-.083.335.335,0,0,0,.008-.074.322.322,0,0,0-.008-.073.389.389,0,0,0-.033-.081.172.172,0,0,0-.084-.076.406.406,0,0,0-.3,0,.172.172,0,0,0-.084.076.355.355,0,0,0-.033.081.332.332,0,0,0-.008.073.335.335,0,0,0,.008.074.371.371,0,0,0,.033.083" transform="translate(-90.69 -61.708)" fill="#77777a"/>
    <path id="svg_171" d="M175.51,121.711a.179.179,0,0,0,.084.076.4.4,0,0,0,.3,0,.175.175,0,0,0,.084-.076.323.323,0,0,0,.033-.083.337.337,0,0,0,.009-.074.324.324,0,0,0-.009-.073.367.367,0,0,0-.033-.081.17.17,0,0,0-.084-.076.406.406,0,0,0-.3,0,.174.174,0,0,0-.084.076.38.38,0,0,0-.033.081.33.33,0,0,0-.008.073.333.333,0,0,0,.008.074.37.37,0,0,0,.033.083" transform="translate(-89.778 -61.708)" fill="#77777a"/>
    <path id="svg_172" d="M121.631,120.067v3.781H120.5v-3.781h-.433v3.781h-.89v-1.29a1.217,1.217,0,0,0-.051-.365.768.768,0,0,0-.135-.262.708.708,0,0,0-.2-.167.868.868,0,0,0-.244-.094,1.254,1.254,0,0,0-.269-.028h-.378a1.242,1.242,0,0,0-.249.028.857.857,0,0,0-.243.094.7.7,0,0,0-.2.167.784.784,0,0,0-.134.262,1.2,1.2,0,0,0-.047.339h0v.007c0,.007,0,.012,0,.019v.27a1.315,1.315,0,0,1-.191.775.8.8,0,0,1-.666.245h-.508v-2.21h-.432v2.21h-1.835v-2.21h-.433v2.21h-.4a.8.8,0,0,1-.665-.245,1.366,1.366,0,0,1-.194-.833v-.9h-.427v.9a1.365,1.365,0,0,1-.194.833.8.8,0,0,1-.665.245H110V121.87h-.432v1.978h-1.979v-3.781h-.432v4.216H110.4a1.867,1.867,0,0,0,.4-.04,1.187,1.187,0,0,0,.351-.138.983.983,0,0,0,.282-.25c.014-.018.025-.044.038-.064.013.021.025.046.039.064a.976.976,0,0,0,.282.25,1.193,1.193,0,0,0,.351.138,1.907,1.907,0,0,0,.355.036v0h3.657a1.868,1.868,0,0,0,.4-.04,1.184,1.184,0,0,0,.351-.138.962.962,0,0,0,.239-.211.824.824,0,0,0,.051.1.7.7,0,0,0,.2.169.861.861,0,0,0,.243.1,1.29,1.29,0,0,0,.269.024h4.151v-4.216h-.433Zm-2.891,3.784h-.827a.44.44,0,0,1-.352-.131.674.674,0,0,1-.112-.434v-.647a.665.665,0,0,1,.112-.432.416.416,0,0,1,.332-.13h.378a.444.444,0,0,1,.355.13.657.657,0,0,1,.113.432v1.212Z" transform="translate(-54.336 -61.07)" fill="#77777a"/>
    <path id="svg_173" d="M105.987,118.433l.421-.319a.613.613,0,0,0,.447.2.742.742,0,0,0,.5-.2v.346a.751.751,0,0,1-.516.182.577.577,0,0,1-.428-.153l-.245.181Z" transform="translate(-53.731 -60.052)" fill="#77777a"/>
    <path id="svg_174" d="M100,125.542h-2.91a.8.8,0,0,1-.665-.245,1.367,1.367,0,0,1-.194-.833v-.5H95.8v.658a1.918,1.918,0,0,0,.068.536,1.155,1.155,0,0,0,.184.389.976.976,0,0,0,.282.249,1.178,1.178,0,0,0,.351.138,1.871,1.871,0,0,0,.355.036v0h3.389v-2.645H100Z" transform="translate(-48.447 -62.764)" fill="#77777a"/>
    <path id="svg_175" d="M116.564,121.4a.362.362,0,0,0-.033.082.334.334,0,0,0-.008.073.345.345,0,0,0,.008.075.388.388,0,0,0,.033.082.178.178,0,0,0,.084.076.406.406,0,0,0,.3,0,.178.178,0,0,0,.084-.076.336.336,0,0,0,.033-.082.348.348,0,0,0,.009-.075.328.328,0,0,0-.009-.073.37.37,0,0,0-.033-.082.176.176,0,0,0-.084-.075.4.4,0,0,0-.3,0,.181.181,0,0,0-.084.075" transform="translate(-59.197 -61.707)" fill="#77777a"/>
    <path id="svg_176" d="M123.834,121.711a.179.179,0,0,0,.084.076.4.4,0,0,0,.3,0,.175.175,0,0,0,.084-.076.343.343,0,0,0,.033-.083.337.337,0,0,0,.008-.074.324.324,0,0,0-.008-.073.392.392,0,0,0-.033-.081.17.17,0,0,0-.084-.076.406.406,0,0,0-.3,0,.174.174,0,0,0-.084.076.385.385,0,0,0-.033.081.332.332,0,0,0-.008.073.335.335,0,0,0,.008.074.374.374,0,0,0,.033.083" transform="translate(-62.969 -61.708)" fill="#77777a"/>
    <path id="svg_177" d="M115.819,120.323a.174.174,0,0,0,.084.076.4.4,0,0,0,.3,0,.174.174,0,0,0,.084-.076.324.324,0,0,0,.032-.082.344.344,0,0,0,.009-.075.3.3,0,0,0-.009-.073.371.371,0,0,0-.032-.081.172.172,0,0,0-.084-.076.406.406,0,0,0-.3,0,.172.172,0,0,0-.084.076.369.369,0,0,0-.033.081.331.331,0,0,0-.008.073.342.342,0,0,0,.008.075.37.37,0,0,0,.033.082" transform="translate(-58.811 -60.988)" fill="#77777a"/>
    <path id="svg_178" d="M114.805,121.711a.175.175,0,0,0,.084.076.4.4,0,0,0,.3,0,.175.175,0,0,0,.084-.076.323.323,0,0,0,.033-.083.309.309,0,0,0,.009-.074.3.3,0,0,0-.009-.073.367.367,0,0,0-.033-.081.17.17,0,0,0-.084-.076.4.4,0,0,0-.3,0,.17.17,0,0,0-.084.076.358.358,0,0,0-.033.081.3.3,0,0,0-.009.073.308.308,0,0,0,.009.074.329.329,0,0,0,.033.083" transform="translate(-58.285 -61.708)" fill="#77777a"/>
    <path id="svg_179" d="M100.964,121.711a.177.177,0,0,0,.084.076.4.4,0,0,0,.3,0,.177.177,0,0,0,.084-.076.32.32,0,0,0,.032-.083.31.31,0,0,0,.009-.074.3.3,0,0,0-.009-.073.362.362,0,0,0-.032-.081.172.172,0,0,0-.084-.076.406.406,0,0,0-.3,0,.172.172,0,0,0-.084.076.358.358,0,0,0-.033.081.315.315,0,0,0,0,.147.349.349,0,0,0,.033.083" transform="translate(-51.104 -61.708)" fill="#77777a"/>
    <path id="svg_180" d="M99.2,121.711a.179.179,0,0,0,.084.076.4.4,0,0,0,.3,0,.175.175,0,0,0,.084-.076.324.324,0,0,0,.033-.083.338.338,0,0,0,.008-.074.325.325,0,0,0-.008-.073.368.368,0,0,0-.033-.081.17.17,0,0,0-.084-.076.406.406,0,0,0-.3,0,.174.174,0,0,0-.084.076.382.382,0,0,0-.033.081.329.329,0,0,0-.008.073.333.333,0,0,0,.008.074.371.371,0,0,0,.033.083" transform="translate(-50.192 -61.708)" fill="#77777a"/>
    <rect id="svg_181" width="0.433" height="4.217" transform="translate(44.939 58.996)" fill="#77777a"/>
    <path id="svg_182" d="M75.5,120.066v3.781H74.489v-1.12a1.108,1.108,0,0,0-.657-.953,1.82,1.82,0,0,0-1.816.274v-.408h-.433v2.207h-.991a2.919,2.919,0,0,1-.729-.084,2.02,2.02,0,0,0,.765-1.194.818.818,0,0,0-.793-.908,3.533,3.533,0,0,0-1.311.128l-.108.031-.036.109a1.7,1.7,0,0,0,.274,1.536,1.738,1.738,0,0,0,.338.354.6.6,0,0,1-.168.026H67.088v-2.21h-.433v2.21H65.027v-2.194h-.433v2.169a2.128,2.128,0,0,1-.041.457.681.681,0,0,1-.131.291.551.551,0,0,1-.208.157,1.02,1.02,0,0,1-.293.065v.478a1.857,1.857,0,0,0,.342-.052,1.106,1.106,0,0,0,.3-.134.817.817,0,0,0,.245-.239,1.209,1.209,0,0,0,.159-.381c.014-.055.023-.118.032-.18h3.824a1.248,1.248,0,0,0,.624-.2,3,3,0,0,0,1.144.2h5.336v-4.216H75.5Zm-6.078,3.519a1.317,1.317,0,0,1-.413-.371,1.242,1.242,0,0,1-.243-1.036,2.947,2.947,0,0,1,1.008-.085c.4.062.441.27.428.444a1.7,1.7,0,0,1-.779,1.049m4.64.262H72.016v-1.269a1.651,1.651,0,0,1,1.63-.412.676.676,0,0,1,.411.561Z" transform="translate(-31.909 -61.07)" fill="#77777a"/>
    <path id="svg_183" d="M74.7,121.711a.177.177,0,0,0,.084.076.4.4,0,0,0,.3,0,.175.175,0,0,0,.084-.076.343.343,0,0,0,.033-.083.309.309,0,0,0,.009-.074.3.3,0,0,0-.009-.073.367.367,0,0,0-.033-.081.17.17,0,0,0-.084-.076.4.4,0,0,0-.3,0,.172.172,0,0,0-.084.076.359.359,0,0,0-.033.081.3.3,0,0,0-.009.073.307.307,0,0,0,.009.074.351.351,0,0,0,.033.083" transform="translate(-37.479 -61.708)" fill="#77777a"/>
    <path id="svg_184" d="M61.451,121.711a.179.179,0,0,0,.084.076.348.348,0,0,0,.149.029.354.354,0,0,0,.149-.029.177.177,0,0,0,.084-.076.363.363,0,0,0,.033-.083.337.337,0,0,0,.008-.074.324.324,0,0,0-.008-.073.392.392,0,0,0-.033-.081.172.172,0,0,0-.084-.076.347.347,0,0,0-.149-.028.341.341,0,0,0-.149.028.174.174,0,0,0-.084.076.357.357,0,0,0-.033.081.315.315,0,0,0,0,.147.349.349,0,0,0,.033.083" transform="translate(-30.605 -61.708)" fill="#77777a"/>
    <path id="svg_185" d="M59.692,121.711a.179.179,0,0,0,.084.076.4.4,0,0,0,.3,0,.175.175,0,0,0,.084-.076.342.342,0,0,0,.033-.083.336.336,0,0,0,.008-.074.323.323,0,0,0-.008-.073.366.366,0,0,0-.033-.081.17.17,0,0,0-.084-.076.4.4,0,0,0-.3,0,.174.174,0,0,0-.084.076.382.382,0,0,0-.033.081.33.33,0,0,0-.008.073.334.334,0,0,0,.008.074.371.371,0,0,0,.033.083" transform="translate(-29.693 -61.708)" fill="#77777a"/>
    <path id="svg_186" d="M70.488,130.278a.351.351,0,0,0,.149.029.34.34,0,0,0,.148-.029.171.171,0,0,0,.084-.075.328.328,0,0,0,.033-.083.317.317,0,0,0,.009-.074.305.305,0,0,0-.009-.074.342.342,0,0,0-.033-.082.17.17,0,0,0-.084-.075.4.4,0,0,0-.3,0,.174.174,0,0,0-.084.075.414.414,0,0,0-.033.082.317.317,0,0,0,0,.147.4.4,0,0,0,.033.083.175.175,0,0,0,.084.075" transform="translate(-35.249 -66.113)" fill="#77777a"/>
    <path id="svg_187" d="M69.11,129.89a.173.173,0,0,0-.084-.075.35.35,0,0,0-.149-.029.345.345,0,0,0-.149.029.175.175,0,0,0-.084.075.406.406,0,0,0-.033.082.341.341,0,0,0-.008.073.348.348,0,0,0,.008.075.41.41,0,0,0,.033.082.177.177,0,0,0,.084.076.4.4,0,0,0,.3,0,.175.175,0,0,0,.084-.076.3.3,0,0,0,.041-.157.335.335,0,0,0-.008-.073.372.372,0,0,0-.033-.082" transform="translate(-34.337 -66.112)" fill="#77777a"/>
    <path id="svg_188" d="M59.246,125.861a.846.846,0,0,0,.243.1,1.262,1.262,0,0,0,.269.025h1.259v-1.726a1.22,1.22,0,0,0-.051-.365.774.774,0,0,0-.135-.262.709.709,0,0,0-.2-.167.849.849,0,0,0-.243-.095,1.258,1.258,0,0,0-.269-.027h-.378a1.237,1.237,0,0,0-.249.027.844.844,0,0,0-.243.095.7.7,0,0,0-.2.167.773.773,0,0,0-.134.262,1.205,1.205,0,0,0-.051.365v.809a1.2,1.2,0,0,0,.051.365.788.788,0,0,0,.134.263.714.714,0,0,0,.2.169m.048-1.524a.658.658,0,0,1,.112-.432.417.417,0,0,1,.332-.13h.378a.445.445,0,0,1,.355.13.651.651,0,0,1,.114.432v1.213h-.827a.439.439,0,0,1-.352-.132.667.667,0,0,1-.112-.433Z" transform="translate(-29.282 -62.767)" fill="#77777a"/>
    <rect id="svg_189" width="0.432" height="4.217" transform="translate(82.971 58.996)" fill="#77777a"/>
    <path id="svg_190" d="M145.85,121.711a.179.179,0,0,0,.084.076.4.4,0,0,0,.3,0,.177.177,0,0,0,.084-.076.342.342,0,0,0,.033-.083.337.337,0,0,0,.008-.074.324.324,0,0,0-.008-.073.393.393,0,0,0-.033-.081.172.172,0,0,0-.084-.076.406.406,0,0,0-.3,0,.174.174,0,0,0-.084.076.38.38,0,0,0-.033.081.332.332,0,0,0-.008.073.336.336,0,0,0,.008.074.349.349,0,0,0,.033.083" transform="translate(-74.39 -61.708)" fill="#77777a"/>
    <path id="svg_191" d="M144.09,121.711a.177.177,0,0,0,.084.076.4.4,0,0,0,.3,0,.175.175,0,0,0,.084-.076.323.323,0,0,0,.033-.083.335.335,0,0,0,.009-.074.322.322,0,0,0-.009-.073.365.365,0,0,0-.033-.081.17.17,0,0,0-.084-.076.4.4,0,0,0-.3,0,.172.172,0,0,0-.084.076.385.385,0,0,0-.033.081.331.331,0,0,0-.008.073.334.334,0,0,0,.008.074.374.374,0,0,0,.033.083" transform="translate(-73.477 -61.708)" fill="#77777a"/>
    <path id="svg_192" d="M161.885,120.067v3.781h-.965v0a3.361,3.361,0,0,1-.7-.068,2.093,2.093,0,0,0,.741-1.253c.016-.219-.027-.742-.793-.86a3.6,3.6,0,0,0-1.311.128l-.108.031-.036.108a1.811,1.811,0,0,0,.237,1.552,1.59,1.59,0,0,0,.335.347.585.585,0,0,1-.128.015h-1.583v-3.781h-.433v4.216h2.015a1.329,1.329,0,0,0,.615-.182,3.252,3.252,0,0,0,1.095.182h1.456v-4.216h-.432Zm-2.149,3.544a1.243,1.243,0,0,1-.442-.378,1.4,1.4,0,0,1-.206-1.052,2.912,2.912,0,0,1,1.008-.084c.453.07.436.3.429.4a1.868,1.868,0,0,1-.789,1.117" transform="translate(-80.267 -61.07)" fill="#77777a"/>
    <path id="svg_193" d="M149.1,125.98v-1.726a1.207,1.207,0,0,0-.051-.365.775.775,0,0,0-.135-.262.722.722,0,0,0-.2-.167.852.852,0,0,0-.244-.095,1.254,1.254,0,0,0-.269-.027h-.377a1.239,1.239,0,0,0-.249.027.847.847,0,0,0-.243.095.7.7,0,0,0-.2.167.774.774,0,0,0-.134.262,1.225,1.225,0,0,0-.047.34h-.006v.237a1.366,1.366,0,0,1-.194.833.8.8,0,0,1-.665.246h-.671v-1.291a1.223,1.223,0,0,0-.051-.365.766.766,0,0,0-.135-.262.713.713,0,0,0-.2-.167.849.849,0,0,0-.244-.095,1.251,1.251,0,0,0-.268-.027h-.377a1.24,1.24,0,0,0-.249.027.851.851,0,0,0-.243.095.693.693,0,0,0-.2.167.766.766,0,0,0-.134.262,1.222,1.222,0,0,0-.051.365v.809a1.207,1.207,0,0,0,.051.364.773.773,0,0,0,.134.263.7.7,0,0,0,.2.169.852.852,0,0,0,.243.1,1.26,1.26,0,0,0,.269.025h1.93a1.845,1.845,0,0,0,.4-.04,1.179,1.179,0,0,0,.351-.138.979.979,0,0,0,.242-.214.719.719,0,0,0,.052.1.707.707,0,0,0,.2.169.848.848,0,0,0,.243.1,1.253,1.253,0,0,0,.268.025h1.26Zm-5.3-.564a.667.667,0,0,1-.112-.433v-.648a.661.661,0,0,1,.112-.432.418.418,0,0,1,.332-.13h.378a.446.446,0,0,1,.356.13.658.658,0,0,1,.113.432v1.213h-.826a.439.439,0,0,1-.352-.132m3.69,0a.667.667,0,0,1-.112-.433v-.648a.66.66,0,0,1,.112-.432.417.417,0,0,1,.332-.13h.378a.446.446,0,0,1,.356.13.655.655,0,0,1,.113.432v1.213h-.827a.438.438,0,0,1-.351-.132" transform="translate(-73.066 -62.767)" fill="#77777a"/>
    <rect id="svg_194" width="0.433" height="4.217" transform="translate(24.169 58.996)" fill="#77777a"/>
    <path id="svg_195" d="M13.444,123.848h-.4a.8.8,0,0,1-.665-.245,1.364,1.364,0,0,1-.194-.833v-.9h-.427v.9a1.366,1.366,0,0,1-.194.833.8.8,0,0,1-.665.245h-.4v-1.977h-.433v1.977H8.875v-1.126a1.107,1.107,0,0,0-.658-.952,1.819,1.819,0,0,0-1.816.273v-1.976H5.96v3.781H4.8v-1.291a1.2,1.2,0,0,0-.051-.365.761.761,0,0,0-.135-.262.719.719,0,0,0-.2-.168.858.858,0,0,0-.244-.094,1.253,1.253,0,0,0-.269-.028H3.521a1.2,1.2,0,0,0-.248.028.864.864,0,0,0-.243.094.7.7,0,0,0-.2.168.769.769,0,0,0-.134.262,1.2,1.2,0,0,0-.051.365v.809a1.2,1.2,0,0,0,.051.365.8.8,0,0,0,.134.264.712.712,0,0,0,.2.169.884.884,0,0,0,.243.1,1.255,1.255,0,0,0,.268.024h7.354a1.874,1.874,0,0,0,.4-.04,1.178,1.178,0,0,0,.351-.138.976.976,0,0,0,.282-.249c.014-.019.026-.044.039-.065.013.021.024.046.038.065a.988.988,0,0,0,.282.249,1.184,1.184,0,0,0,.352.138,1.862,1.862,0,0,0,.355.036v0h.881v-2.645h-.432v2.209Zm-9.077,0H3.541a.438.438,0,0,1-.352-.131.669.669,0,0,1-.112-.434v-.647a.661.661,0,0,1,.112-.432.416.416,0,0,1,.332-.13H3.9a.446.446,0,0,1,.355.13.656.656,0,0,1,.113.432Zm4.075,0H6.4v-1.274a1.652,1.652,0,0,1,1.631-.412.677.677,0,0,1,.411.561Z" transform="translate(-0.118 -61.07)" fill="#77777a"/>
    <path id="svg_196" d="M5.236,121.711a.179.179,0,0,0,.084.076.348.348,0,0,0,.149.029.354.354,0,0,0,.149-.029.177.177,0,0,0,.084-.076.363.363,0,0,0,.033-.083.336.336,0,0,0,.008-.074.323.323,0,0,0-.008-.073A.392.392,0,0,0,5.7,121.4a.172.172,0,0,0-.084-.076.347.347,0,0,0-.149-.028.341.341,0,0,0-.149.028.174.174,0,0,0-.084.076.358.358,0,0,0-.033.081.33.33,0,0,0-.008.073.333.333,0,0,0,.008.074.349.349,0,0,0,.033.083" transform="translate(-1.442 -61.708)" fill="#77777a"/>
    <path id="svg_197" d="M3.477,121.711a.179.179,0,0,0,.084.076.4.4,0,0,0,.3,0,.175.175,0,0,0,.084-.076.342.342,0,0,0,.033-.083.336.336,0,0,0,.009-.074.323.323,0,0,0-.009-.073.367.367,0,0,0-.033-.081.17.17,0,0,0-.084-.076.4.4,0,0,0-.3,0,.174.174,0,0,0-.084.076.381.381,0,0,0-.033.081.33.33,0,0,0-.008.073.333.333,0,0,0,.008.074.33.33,0,0,0,.033.083" transform="translate(-0.529 -61.708)" fill="#77777a"/>
    <path id="svg_198" d="M35.234,121.711a.18.18,0,0,0,.085.076.4.4,0,0,0,.3,0,.175.175,0,0,0,.084-.076.342.342,0,0,0,.033-.083.31.31,0,0,0,.009-.074.3.3,0,0,0-.009-.073.367.367,0,0,0-.033-.081.17.17,0,0,0-.084-.076.4.4,0,0,0-.3,0,.176.176,0,0,0-.085.076.377.377,0,0,0-.032.081.3.3,0,0,0-.009.073.307.307,0,0,0,.009.074.392.392,0,0,0,.032.083" transform="translate(-17.004 -61.708)" fill="#77777a"/>
    <path id="svg_199" d="M33.475,121.711a.179.179,0,0,0,.084.076.348.348,0,0,0,.149.029.354.354,0,0,0,.149-.029.177.177,0,0,0,.084-.076.362.362,0,0,0,.033-.083.337.337,0,0,0,.008-.074.324.324,0,0,0-.008-.073.391.391,0,0,0-.033-.081.172.172,0,0,0-.084-.076.347.347,0,0,0-.149-.028.341.341,0,0,0-.149.028.174.174,0,0,0-.084.076.358.358,0,0,0-.033.081.315.315,0,0,0,0,.147.312.312,0,0,0,.033.083" transform="translate(-16.092 -61.708)" fill="#77777a"/>
    <path id="svg_200" d="M52.409,125.981v-1.726a1.223,1.223,0,0,0-.051-.365.774.774,0,0,0-.135-.262.722.722,0,0,0-.2-.167.853.853,0,0,0-.244-.095,1.256,1.256,0,0,0-.269-.027H51.13a1.241,1.241,0,0,0-.249.027.85.85,0,0,0-.243.095.693.693,0,0,0-.2.167.774.774,0,0,0-.134.262,1.207,1.207,0,0,0-.051.365v.809a1.192,1.192,0,0,0,.051.364.782.782,0,0,0,.134.263.7.7,0,0,0,.2.169.851.851,0,0,0,.243.1,1.257,1.257,0,0,0,.268.025h.811c0,.621-.353.674-.655.674h-.463v.477H51.3a1,1,0,0,0,1.1-1.152m-.432-1.406v.973H51.15a.438.438,0,0,1-.352-.131.667.667,0,0,1-.112-.433v-.648a.66.66,0,0,1,.112-.432.419.419,0,0,1,.332-.13h.378a.448.448,0,0,1,.356.13.658.658,0,0,1,.113.432Z" transform="translate(-24.817 -62.768)" fill="#77777a"/>
    <path id="svg_201" d="M35.886,120.067v3.781H34.846v-1.29a1.217,1.217,0,0,0-.051-.365.768.768,0,0,0-.135-.262.717.717,0,0,0-.2-.167.859.859,0,0,0-.244-.094,1.254,1.254,0,0,0-.269-.028h-.378a1.237,1.237,0,0,0-.248.028.857.857,0,0,0-.243.094.7.7,0,0,0-.2.167.776.776,0,0,0-.134.262,1.2,1.2,0,0,0-.047.339h0v.007c0,.007,0,.012,0,.019v.27a1.315,1.315,0,0,1-.192.775.8.8,0,0,1-.665.245h-.508v-2.21h-.433v2.21H29.763v-1.292a1.2,1.2,0,0,0-.051-.365.769.769,0,0,0-.135-.262.715.715,0,0,0-.2-.167.865.865,0,0,0-.244-.094,1.254,1.254,0,0,0-.269-.028h-.378a1.238,1.238,0,0,0-.249.028.863.863,0,0,0-.243.094.7.7,0,0,0-.2.167.776.776,0,0,0-.134.262,1.2,1.2,0,0,0-.051.365v.808a1.2,1.2,0,0,0,.051.365.79.79,0,0,0,.134.263.7.7,0,0,0,.2.169.866.866,0,0,0,.243.1,1.3,1.3,0,0,0,.269.024h.81c0,.621-.352.674-.655.674H28.2v.477h.463a1,1,0,0,0,1.1-1.152h2.069a1.874,1.874,0,0,0,.4-.04,1.185,1.185,0,0,0,.351-.138.962.962,0,0,0,.239-.211.815.815,0,0,0,.051.1.7.7,0,0,0,.2.169.861.861,0,0,0,.243.1,1.284,1.284,0,0,0,.268.024h2.731v-4.216h-.432Zm-6.555,2.811v.973H28.5a.442.442,0,0,1-.352-.131.671.671,0,0,1-.112-.434v-.647a.662.662,0,0,1,.112-.432.417.417,0,0,1,.332-.13h.378a.446.446,0,0,1,.356.13.66.66,0,0,1,.113.432Zm5.084.973h-.827a.44.44,0,0,1-.352-.131.671.671,0,0,1-.112-.434v-.647a.662.662,0,0,1,.112-.432.415.415,0,0,1,.332-.13h.378a.447.447,0,0,1,.356.13.657.657,0,0,1,.113.432Z" transform="translate(-13.068 -61.07)" fill="#77777a"/>
  </g>
</svg>
