<svg xmlns="http://www.w3.org/2000/svg" viewBox="0 0 942.02 204"><title>Asset 1</title><g id="Layer_2" data-name="Layer 2"><g id="Graphic_Element" data-name="Graphic Element"><path d="M935.09,126.16c7.1-5.14,8.58-11,5.22-19.23-.53-4.26-2.51-7.87-5-11.25a10,10,0,0,0-4.93-3.53c-2.36-1.48-5-1.83-7.73-2.16-1-.62-2.64.47-3.37-1.2,2.26-2,4.86-3.71,6.13-6.6a1.37,1.37,0,0,0,.3-.48c.18-.27.36-.54.53-.82-.64-3.25-1-6.49.73-9.58l-.29-.16c-.91-.49.07-2-1.22-2.28a4.46,4.46,0,0,1-.79-2.79l.09-1.44a21.06,21.06,0,0,0-3.53-7c0-.68,0-1.36,0-2.05a8.67,8.67,0,0,0,.71-.65,10.56,10.56,0,0,0,3-6.44c0-1.06,0-1.88-.07-2.54.56-3.59-.26-7-1.45-10.46a18.94,18.94,0,0,0,.1-2.14c-1.15-5.57-3.64-10.15-9.21-12.46a7,7,0,0,0-.93-.08,15.29,15.29,0,0,0-5.68-2.55c0-.18-.09-.37-.12-.58s-.52-.42-.81-.59a23.9,23.9,0,0,0-7-2.06c-7-1.37-14.15-1.8-21.25-2.48a8.27,8.27,0,0,0-4.75.84c-6.06,3.17-12.59,3.25-19.17,2.78-9.9-.7-19.79-1.66-29.73-1.87-2.78,0-5.56.35-8.32-.26a4.41,4.41,0,0,0-2.28.1l-.07.05c-2.36-.25-4.73-.49-7.1-.65l-4.59-.29c-2.21-.39-4.56-.16-6.74-.63a10.41,10.41,0,0,0-4.54-.09l-34.78-2.21a2.35,2.35,0,0,0-1.24-.27c-1.77-.44-3.53-.92-5.3.24a.74.74,0,0,0-.6.11,6.55,6.55,0,0,0-4.7-.93c-1.11-.14-2.16-.44-3.24-.66-11.79-2.13-23.75-2.41-35.67-3-6.9-.32-13.79-.76-20.71-.91C667.61,4.5,650.35,2.58,633,3c-4,.28-8.08-.16-12.12.23q-3.12,0-6.26.08a9.43,9.43,0,0,0-1.38-.22L612,3a41.8,41.8,0,0,0-13-.55q-.75.1-1.53.15l-16-.44a7.1,7.1,0,0,0-3.14-.52c-12.29.48-24.55-.89-36.83-.76-1.27,0-2.54,0-3.81.08-2.7-.12-5.41-.9-8.09-.16-.42,0-.84,0-1.26,0-.17-.29-.34-.77-.51-.77h-57.1c-1.15,1-2.43.1-3.64.26-.45.06-1,0-1.2.3a13.3,13.3,0,0,0-1.54.06c-3.63.77-7.33,0-11,.55a.58.58,0,0,1-.14.05,24.44,24.44,0,0,0-3.81.44,8.8,8.8,0,0,0-1,.14h-6.69A16.5,16.5,0,0,0,439,1.64c-.88,0-1.77,0-2.66,0s-1.53-.18-2.29-.21c-1.15,0-2.29-.07-3.44-.06l-.34-.07a5.77,5.77,0,0,0-2.8,0l-.29.11c-2.71.08-5.42.18-8.11.11-4.57-.11-9.19-.75-13.75-.59-2.36-.07-4.73,0-7.09,0a26.45,26.45,0,0,0-3.45,0c-1,0-2.08,0-3.12,0-.41,0-.82,0-1.24,0C382,1,373.66,2.3,365.25,2.55c-5.92.17-11.86.75-17.77,1.34A17.06,17.06,0,0,0,345,4.3c-4.51.51-9,1.19-13.48,2.08A3.55,3.55,0,0,0,330,6.06a5.5,5.5,0,0,0-1.21.16c-7.7.8-15.33,2.43-23.12,2.38-5.88.06-11.64,1.23-17.47,1.77-14.46,1.35-28.88,3.16-43.33,4.69-10.6,1.11-21.26,1.3-31.86,2.5-5.8.65-11.7,1.27-17.45,1.36-5.23.08-10.46.24-15.69.55a15.78,15.78,0,0,1-2.74.52c-8.48.66-17,.93-25.46,1.41a120.79,120.79,0,0,0-16.31,1.53,9.36,9.36,0,0,0-3.26.63,58.66,58.66,0,0,0-9.52.9c-3.31.55-6.75-1.09-10,.61-.46,0-1.11-.17-1.35.07-3,3-7,2.94-10.74,3.71a3.43,3.43,0,0,0-2.65,3.28l-.75,1.4a20.39,20.39,0,0,0,0,10c4.1,2,3.9-2.11,5.35-4.15,1.33,2.12,1.41,5.26,4.45,5.05,2.65-.17,3.09,1.47,3.66,3.27,0,.57.07,1.13.64,1.46l.45.4c.12.34.25.68.39,1a3.06,3.06,0,0,0,3.31,1.61c-.32.36-1.21-.06-1.66.21h-.42a13.76,13.76,0,0,0-2.31.19c-7.8,1.08-15.53,2.6-23.37,3.36-6.48.93-12.27,4.42-18.86,5.08-2.29.23-3.33,2.23-3.74,4.53-.75,4.19.52,7.87,2.61,11.34,1.2,2,.9,2.79-1.51,3.17-2.76.43-5.63.26-8.26,1.4a8.31,8.31,0,0,1-3.07.64c-.76.06-1.51.15-2.25.25A26.42,26.42,0,0,0,41.88,85.3c-2,1.08-5,1.52-5.92,4.24a2.21,2.21,0,0,0-.41.6l-1.77.6c-.87,0-1.75,0-2.62,0-1.12-.29-2.48,0-3.64-.17-6.66.69-13.23,1.73-19.8,3C4,93.42,2,96.07,0,98.48v1.41c2,1.18,4.36,2.53,5.88,4.66,1.18,1.64,2.56,1.2,4,.31,2.66,1,2.8-2,4.35-2.76,2-1.15,2.76-.24,2.73,2.3.26-2.55,2.38-1.66,3.28-2.65a.28.28,0,0,0,.19-.43c1.89-3.2,3-3.27,5.34-.93.69.69,1.72,2.59,2.74,1.69,1.3-1.15,4.5.4,4.17-3-.07-.82,1-2.73,2.26-1.4s2.08.53,3,.24l.46.61c2,2.43,4,4.71,7.51,4.62l0-.09,1.92,1.84c1.64,1.19,3,2.73,5,3.5a3.33,3.33,0,0,0,.65.54,3.7,3.7,0,0,0,.93.92c2.52,1.06,4.25-.66,6-1.84,2-1.29,4.28-2.45,6.22-1.11,5,3.44,10.24,2.4,15.61,2s10.74-1.14,16-1.32A109,109,0,0,0,116,105.91c9.2-1.86,18.41-.6,27.5-2,6.35,0,12.68-.48,19-.87a21,21,0,0,1-5.76.41c-14.78,1.44-29.47,3.76-44.26,5.21-7.24.71-14.4,2.07-21.63,2.74-18.69,1.73-37.24,4.48-55.78,7.25a7.12,7.12,0,0,0-4.13,1.78,9.89,9.89,0,0,1-2.41,2.25c-1.34.71-2.7,1.32-4.42,0-.72-.54-1.41.45-1.61,1.33a6.86,6.86,0,0,0-.1,3.67,6.39,6.39,0,0,0,.09,1.8c1.77,6.25,6.36,10.19,11.39,13.73a6.51,6.51,0,0,0,4.68,1.12c7.41-1,14.89-1.39,22.25-2.84,2-.69,4-.47,6.3-.94-.7.22-1.16.24-1.6.35-6.6,1.56-13.31,2.59-19.92,4.07-2,.44-4.29.5-5.31,2.85a2.37,2.37,0,0,0,.09,1.49,4.67,4.67,0,0,0,.25,3.13,1.27,1.27,0,0,1-.51,1.76,4.49,4.49,0,0,0-.73.06,3.59,3.59,0,0,0-1.73,1l-.31.37c-1,.33-1.44,1.41-1.07,1.87,1.49,1.83.45,3.86.92,5.72A3.13,3.13,0,0,0,38.27,165q0,.61.09,1.23a7.35,7.35,0,0,0,5,3.08c7.73,1.35,15.41.46,23-1.16a65.29,65.29,0,0,1,9.65-1.57c4.35-.26,5.9,3.63,7,7.07.82,2.53,2.28,4.54,4.65,4.74,5.71.48,11.78,3,16.94-1.91.7-.66,1.78-.52,2.7-.68.49.09.94.16,1.36.22,1.22,1,3,.93,4.47,1.48a2.71,2.71,0,0,0,4-2.47h.35v-.09a6.29,6.29,0,0,0,2-.49c.88-.19,1.61-.38,2.19-.54,1,0,2,.55,2.47,2.71a2.68,2.68,0,0,0,2,0c1.85-1.14,2.59-2.67,1.18-4.68l.43-.3.53-.4,4.14-.22a9.08,9.08,0,0,1-.08-1.8l.33,0c3.58-1.41,6.62-.82,9,2.4.34.47,1,.66,1.33,1.13,1.76,2.77,4.12,2.55,6.68,1.44l.17-.19c1.88.25,3.85.24,4.43,2.87.22,1,1.44,1.49,2.6,1.37,2.77-.3,2.57,1.24,1.81,3-1,2.38-2,4.75-1.3,7.43a.79.79,0,0,0,.54.14c4,3.07,8.66,3.07,13.27,3.4a19.18,19.18,0,0,1,1.5,1.3,22.33,22.33,0,0,0,11.25,5.32,196.66,196.66,0,0,0,25.1,1.52c1.86,0,3.85-.37,5.38.93,1.85,1.57,4.09,1.79,6.27,2.79H229c.5,0,1.09-.24,1.68-.26,12.31-.38,24.62-1,36.86-2.22,20-2,40-3.43,60.05-3.89,19.11-.43,38.22-1,57.33-1.65,3.87-.12,7.78.34,11.61,0,18-1.77,36.11-1.35,54.17-1.8,15.95-.4,31.93-.27,47.9-.09,20.43.23,40.84-1.22,61.28-.73,3.87.1,7.75,0,11.64,0a59.35,59.35,0,0,1,6-.13,5.44,5.44,0,0,0,2-.28,9.65,9.65,0,0,0,4.71-1.64,2,2,0,0,1,2.27-.07c5.47,2.73,11.19,1.73,16.88,1.07,2.23-.39,4.46,1,6.69.43a4.41,4.41,0,0,0,2.06.53c18,.43,36.08,1,54.13,1.34,11,.18,22,.13,33,.73,4.41.24,8.92.47,13.34-.39a17.85,17.85,0,0,1,4.19-.29c4.33-.2,8.56,1,12.91.76a19.19,19.19,0,0,0,3.43-.57q3.32.09,6.64.22l2.07.06a9.39,9.39,0,0,0,1.62.35,19.91,19.91,0,0,0,6.09-.35l2.71-.08c2.18-.09,4.37,0,6.55.06a7.05,7.05,0,0,0,1.53.21c3,.27,6.08-.37,9.07.46a6.57,6.57,0,0,0,1.16.21c9.33-.3,18.56,1.25,27.87,1.48a6.53,6.53,0,0,0,1.13-.12,16,16,0,0,0,6.71.56c1.66.22,3.25,1.05,5,.67a35,35,0,0,0,7.72.09,36.47,36.47,0,0,0,8.27,1.26h0c1.92.62,3.92.26,5.87.42a40.1,40.1,0,0,0,10.6.61c1.54.76,3.17.53,4.79.35,1.6-.63.89-1.9.82-3s-.94-2.45.45-3.88a4.48,4.48,0,0,1,1.66,4.22c-.16,1-.77,2.1.7,2.66l2.11,0c3.28.09,6.5,1.11,9.83.68,8.05-.13,16.07.86,24.11.83a10.86,10.86,0,0,0,3.22.15,5.59,5.59,0,0,0,.92-.21c8,.12,16,.61,23.89-.76a30.11,30.11,0,0,0,10-2.61l.45-.52c.13.09.25.18.39.26,4.38-1.2,7.77-7.36,6.63-12.35a57.72,57.72,0,0,0-2-7.45c-2.79-7.53-7.36-13.25-15.88-14.62a2.76,2.76,0,0,0-1.17.34l-1.15-.36c-.34-.09-.67-.17-1-.22a56.51,56.51,0,0,0-8.18-1.25,4.24,4.24,0,0,0-.81-.83c-3.22-1.23-6.67-1.1-10-1.66-1.43-.24-3.14-.17-3.5-2.25-.67-3.87.55-5.34,4.48-5.41,9.26-.18,18.55.62,27.77-.78,5.62-.85,10.76-2.63,13-8.66a5.43,5.43,0,0,0,0-2.27c.87-1.91,1.68-3.82.13-5.94a4.88,4.88,0,0,1,.37-.45c-.29-1.71-.13-3.5-1-5.09a8.22,8.22,0,0,1-.87-1.67A2.42,2.42,0,0,1,935.09,126.16ZM122.11,47l-.23-.47.16,0C122.06,46.63,122.08,46.79,122.11,47ZM619,4.05l-.06.09,0-.09ZM844.33,200.89h0ZM747,14a1.44,1.44,0,0,0,.11.42l-.35-.08Zm10.83,179.86a.64.64,0,0,1,0,.07l-.11,0Zm69.07,5.28h0a.86.86,0,0,1,0-.16s0,.11.08.16Zm27.36,1.67h0v0l0,0Z"/></g></g></svg>